<?xml version="1.0" encoding="UTF-8"?>
<svg xmlns="http://www.w3.org/2000/svg" width="433.62" height="361.35" viewBox="0,0,433.62,361.35">
<desc>R SVG Plot!</desc>
<rect width="100%" height="100%" style="fill:#FFFFFF"/>
<polygon points="0.00 , 361.35 0.00 , 0.00 433.62 , 0.00 433.62 , 361.35 " style="stroke-width:1;stroke:#FFFFFF;fill:#FFFFFF;stroke-opacity:1.000000;fill-opacity:1.000000" />
<polygon points="51.20 , 330.55 51.20 , 22.00 346.28 , 22.00 346.28 , 330.55 " style="stroke-width:1;stroke:#FFFFFF;fill:#FFFFFF;stroke-opacity:0.000000;fill-opacity:1.000000" />
<polyline points="51.20 , 284.62 346.28 , 284.62 " style="stroke-width:0;stroke:#EBEBEB;fill:#000000;stroke-opacity:1.000000;fill-opacity:0.000000"/>
<polyline points="51.20 , 220.82 346.28 , 220.82 " style="stroke-width:0;stroke:#EBEBEB;fill:#000000;stroke-opacity:1.000000;fill-opacity:0.000000"/>
<polyline points="51.20 , 157.02 346.28 , 157.02 " style="stroke-width:0;stroke:#EBEBEB;fill:#000000;stroke-opacity:1.000000;fill-opacity:0.000000"/>
<polyline points="51.20 , 93.22 346.28 , 93.22 " style="stroke-width:0;stroke:#EBEBEB;fill:#000000;stroke-opacity:1.000000;fill-opacity:0.000000"/>
<polyline points="51.20 , 29.42 346.28 , 29.42 " style="stroke-width:0;stroke:#EBEBEB;fill:#000000;stroke-opacity:1.000000;fill-opacity:0.000000"/>
<polyline points="98.15 , 330.55 98.15 , 22.00 " style="stroke-width:0;stroke:#EBEBEB;fill:#000000;stroke-opacity:1.000000;fill-opacity:0.000000"/>
<polyline points="165.21 , 330.55 165.21 , 22.00 " style="stroke-width:0;stroke:#EBEBEB;fill:#000000;stroke-opacity:1.000000;fill-opacity:0.000000"/>
<polyline points="232.27 , 330.55 232.27 , 22.00 " style="stroke-width:0;stroke:#EBEBEB;fill:#000000;stroke-opacity:1.000000;fill-opacity:0.000000"/>
<polyline points="299.34 , 330.55 299.34 , 22.00 " style="stroke-width:0;stroke:#EBEBEB;fill:#000000;stroke-opacity:1.000000;fill-opacity:0.000000"/>
<polyline points="51.20 , 316.52 346.28 , 316.52 " style="stroke-width:1;stroke:#EBEBEB;fill:#000000;stroke-opacity:1.000000;fill-opacity:0.000000"/>
<polyline points="51.20 , 252.72 346.28 , 252.72 " style="stroke-width:1;stroke:#EBEBEB;fill:#000000;stroke-opacity:1.000000;fill-opacity:0.000000"/>
<polyline points="51.20 , 188.92 346.28 , 188.92 " style="stroke-width:1;stroke:#EBEBEB;fill:#000000;stroke-opacity:1.000000;fill-opacity:0.000000"/>
<polyline points="51.20 , 125.12 346.28 , 125.12 " style="stroke-width:1;stroke:#EBEBEB;fill:#000000;stroke-opacity:1.000000;fill-opacity:0.000000"/>
<polyline points="51.20 , 61.32 346.28 , 61.32 " style="stroke-width:1;stroke:#EBEBEB;fill:#000000;stroke-opacity:1.000000;fill-opacity:0.000000"/>
<polyline points="64.61 , 330.55 64.61 , 22.00 " style="stroke-width:1;stroke:#EBEBEB;fill:#000000;stroke-opacity:1.000000;fill-opacity:0.000000"/>
<polyline points="131.68 , 330.55 131.68 , 22.00 " style="stroke-width:1;stroke:#EBEBEB;fill:#000000;stroke-opacity:1.000000;fill-opacity:0.000000"/>
<polyline points="198.74 , 330.55 198.74 , 22.00 " style="stroke-width:1;stroke:#EBEBEB;fill:#000000;stroke-opacity:1.000000;fill-opacity:0.000000"/>
<polyline points="265.81 , 330.55 265.81 , 22.00 " style="stroke-width:1;stroke:#EBEBEB;fill:#000000;stroke-opacity:1.000000;fill-opacity:0.000000"/>
<polyline points="332.87 , 330.55 332.87 , 22.00 " style="stroke-width:1;stroke:#EBEBEB;fill:#000000;stroke-opacity:1.000000;fill-opacity:0.000000"/>
<polyline points="64.61 , 98.43 65.14 , 90.23 65.66 , 82.63 66.19 , 75.55 66.71 , 69.05 67.24 , 63.12 67.76 , 57.81 68.29 , 53.23 68.81 , 49.37 69.34 , 46.14 69.86 , 43.55 70.39 , 41.57 70.91 , 40.19 71.44 , 39.53 71.96 , 39.40 72.49 , 39.76 73.01 , 40.58 73.54 , 41.82 74.06 , 43.49 74.59 , 45.52 75.11 , 47.83 75.64 , 50.37 76.16 , 53.11 76.69 , 56.02 77.21 , 59.07 77.74 , 62.21 78.26 , 65.40 78.79 , 68.61 79.31 , 71.83 79.84 , 75.04 80.36 , 78.19 80.89 , 81.30 81.41 , 84.34 81.94 , 87.31 82.46 , 90.21 82.99 , 93.00 83.51 , 95.70 84.04 , 98.32 84.56 , 100.85 85.09 , 103.30 85.61 , 105.66 86.14 , 107.92 86.66 , 110.11 87.19 , 112.23 87.71 , 114.28 88.24 , 116.27 88.76 , 118.18 89.29 , 120.03 89.81 , 121.83 90.34 , 123.58 90.86 , 125.28 91.39 , 126.94 91.91 , 128.54 92.44 , 130.10 92.96 , 131.63 93.49 , 133.11 94.01 , 134.56 94.54 , 135.97 95.06 , 137.33 95.59 , 138.67 96.11 , 139.97 96.64 , 141.23 97.16 , 142.46 97.69 , 143.64 98.21 , 144.80 98.74 , 145.92 99.26 , 147.00 99.79 , 148.06 100.31 , 149.07 100.84 , 150.05 101.36 , 151.00 101.89 , 151.92 102.41 , 152.82 102.94 , 153.68 103.46 , 154.51 103.99 , 155.32 104.51 , 156.11 105.04 , 156.88 105.56 , 157.62 106.09 , 158.35 106.61 , 159.07 107.14 , 159.77 107.66 , 160.45 108.19 , 161.13 108.71 , 161.80 109.24 , 162.47 109.76 , 163.13 110.29 , 163.78 110.81 , 164.43 111.34 , 165.08 111.86 , 165.73 112.39 , 166.38 112.91 , 167.02 113.44 , 167.67 113.96 , 168.31 114.48 , 168.96 115.01 , 169.60 115.53 , 170.24 116.06 , 170.88 116.58 , 171.52 117.11 , 172.16 117.63 , 172.79 118.16 , 173.42 118.68 , 174.05 119.21 , 174.68 119.73 , 175.30 120.26 , 175.92 120.78 , 176.53 121.31 , 177.14 121.83 , 177.74 122.36 , 178.35 122.88 , 178.95 123.41 , 179.54 123.93 , 180.14 124.46 , 180.73 124.98 , 181.31 125.51 , 181.90 126.03 , 182.48 126.56 , 183.05 127.08 , 183.62 127.61 , 184.19 128.13 , 184.75 128.66 , 185.31 129.18 , 185.86 129.71 , 186.40 130.23 , 186.94 130.76 , 187.46 131.28 , 187.98 131.81 , 188.49 132.33 , 188.98 132.86 , 189.47 133.38 , 189.94 133.91 , 190.40 134.43 , 190.84 134.96 , 191.28 135.48 , 191.70 136.01 , 192.10 136.53 , 192.49 137.06 , 192.87 137.58 , 193.24 138.11 , 193.60 138.63 , 193.94 139.16 , 194.27 139.68 , 194.59 140.21 , 194.91 140.73 , 195.21 141.26 , 195.51 141.78 , 195.80 142.31 , 196.08 142.83 , 196.36 143.36 , 196.63 143.88 , 196.90 144.41 , 197.16 144.93 , 197.42 145.46 , 197.68 145.98 , 197.93 146.51 , 198.18 147.03 , 198.43 147.56 , 198.68 148.08 , 198.92 148.61 , 199.16 149.13 , 199.40 149.66 , 199.63 150.18 , 199.87 150.71 , 200.10 151.23 , 200.33 151.76 , 200.55 152.28 , 200.77 152.81 , 200.99 153.33 , 201.21 153.86 , 201.43 154.38 , 201.64 154.91 , 201.85 155.43 , 202.05 155.96 , 202.26 156.48 , 202.46 157.01 , 202.66 157.53 , 202.86 158.06 , 203.06 158.58 , 203.25 159.11 , 203.45 159.63 , 203.64 160.16 , 203.84 160.68 , 204.03 161.21 , 204.22 161.73 , 204.42 162.26 , 204.61 162.78 , 204.80 163.31 , 205.00 163.83 , 205.19 164.36 , 205.38 164.88 , 205.58 165.41 , 205.77 165.93 , 205.96 166.46 , 206.15 166.98 , 206.34 167.51 , 206.53 168.03 , 206.71 168.56 , 206.90 169.08 , 207.08 169.61 , 207.25 170.13 , 207.43 170.66 , 207.59 171.18 , 207.76 171.71 , 207.92 172.23 , 208.07 172.76 , 208.22 173.28 , 208.37 173.81 , 208.51 174.33 , 208.64 174.86 , 208.77 175.38 , 208.90 175.91 , 209.02 176.43 , 209.14 176.96 , 209.26 177.48 , 209.37 178.01 , 209.48 178.53 , 209.59 179.06 , 209.69 179.58 , 209.80 180.11 , 209.90 180.63 , 210.00 181.16 , 210.11 181.68 , 210.21 182.21 , 210.32 182.73 , 210.42 183.26 , 210.53 183.78 , 210.64 184.31 , 210.76 184.83 , 210.87 185.36 , 210.99 185.88 , 211.12 186.41 , 211.24 186.93 , 211.38 187.46 , 211.51 187.98 , 211.65 188.51 , 211.80 189.03 , 211.95 189.56 , 212.11 190.08 , 212.28 190.61 , 212.45 191.13 , 212.62 191.66 , 212.80 192.18 , 212.99 192.71 , 213.18 193.23 , 213.38 193.76 , 213.58 194.28 , 213.78 194.80 , 213.99 195.33 , 214.19 195.85 , 214.41 196.38 , 214.62 196.90 , 214.83 197.43 , 215.04 197.95 , 215.25 198.48 , 215.46 199.00 , 215.67 199.53 , 215.87 200.05 , 216.07 200.58 , 216.26 201.10 , 216.45 201.63 , 216.63 202.15 , 216.80 202.68 , 216.97 203.20 , 217.13 203.73 , 217.28 204.25 , 217.42 204.78 , 217.55 205.30 , 217.67 205.83 , 217.78 206.35 , 217.87 206.88 , 217.96 207.40 , 218.04 207.93 , 218.10 208.45 , 218.15 208.98 , 218.20 209.50 , 218.23 210.03 , 218.25 210.55 , 218.26 211.08 , 218.26 211.60 , 218.25 212.13 , 218.24 212.65 , 218.22 213.18 , 218.19 213.70 , 218.16 214.23 , 218.12 214.75 , 218.08 215.28 , 218.04 215.80 , 217.99 216.33 , 217.95 216.85 , 217.91 217.38 , 217.88 217.90 , 217.85 218.43 , 217.82 218.95 , 217.80 219.48 , 217.79 220.00 , 217.78 220.53 , 217.79 221.05 , 217.81 221.58 , 217.83 222.10 , 217.87 222.63 , 217.92 223.15 , 217.98 223.68 , 218.05 224.20 , 218.14 224.73 , 218.23 225.25 , 218.34 225.78 , 218.45 226.30 , 218.58 226.83 , 218.71 227.35 , 218.86 227.88 , 219.01 228.40 , 219.17 228.93 , 219.33 229.45 , 219.50 229.98 , 219.67 230.50 , 219.85 231.03 , 220.02 231.55 , 220.20 232.08 , 220.37 232.60 , 220.55 233.13 , 220.72 233.65 , 220.88 234.18 , 221.04 234.70 , 221.20 235.23 , 221.34 235.75 , 221.48 236.28 , 221.62 236.80 , 221.74 237.33 , 221.85 237.85 , 221.95 238.38 , 222.04 238.90 , 222.12 239.43 , 222.19 239.95 , 222.25 240.48 , 222.30 241.00 , 222.34 241.53 , 222.37 242.05 , 222.39 242.58 , 222.40 243.10 , 222.40 243.63 , 222.40 244.15 , 222.39 244.68 , 222.37 245.20 , 222.35 245.73 , 222.32 246.25 , 222.29 246.78 , 222.25 247.30 , 222.21 247.83 , 222.16 248.35 , 222.11 248.88 , 222.06 249.40 , 222.01 249.93 , 221.95 250.45 , 221.90 250.98 , 221.84 251.50 , 221.78 252.03 , 221.72 252.55 , 221.66 253.08 , 221.60 253.60 , 221.54 254.13 , 221.48 254.65 , 221.42 255.18 , 221.36 255.70 , 221.30 256.23 , 221.25 256.75 , 221.19 257.28 , 221.14 257.80 , 221.10 258.33 , 221.06 258.85 , 221.02 259.38 , 220.99 259.90 , 220.96 260.43 , 220.94 260.95 , 220.92 261.48 , 220.91 262.00 , 220.90 262.53 , 220.90 263.05 , 220.91 263.58 , 220.92 264.10 , 220.94 264.63 , 220.97 265.15 , 221.00 265.68 , 221.03 266.20 , 221.07 266.73 , 221.12 267.25 , 221.17 267.78 , 221.22 268.30 , 221.28 268.83 , 221.34 269.35 , 221.40 269.88 , 221.47 270.40 , 221.54 270.93 , 221.61 271.45 , 221.69 271.98 , 221.77 272.50 , 221.85 273.03 , 221.94 273.55 , 222.03 274.08 , 222.12 274.60 , 222.21 275.13 , 222.31 275.65 , 222.41 276.17 , 222.52 276.70 , 222.63 277.22 , 222.74 277.75 , 222.86 278.27 , 222.98 278.80 , 223.10 279.32 , 223.23 279.85 , 223.36 280.37 , 223.49 280.90 , 223.63 281.42 , 223.76 281.95 , 223.90 282.47 , 224.04 283.00 , 224.18 283.52 , 224.31 284.05 , 224.44 284.57 , 224.57 285.10 , 224.70 285.62 , 224.82 286.15 , 224.93 286.67 , 225.04 287.20 , 225.14 287.72 , 225.23 288.25 , 225.31 288.77 , 225.38 289.30 , 225.44 289.82 , 225.48 290.35 , 225.52 290.87 , 225.55 291.40 , 225.56 291.92 , 225.57 292.45 , 225.56 292.97 , 225.55 293.50 , 225.53 294.02 , 225.50 294.55 , 225.46 295.07 , 225.42 295.60 , 225.37 296.12 , 225.32 296.65 , 225.27 297.17 , 225.22 297.70 , 225.17 298.22 , 225.12 298.75 , 225.08 299.27 , 225.04 299.80 , 225.00 300.32 , 224.97 300.85 , 224.95 301.37 , 224.93 301.90 , 224.92 302.42 , 224.92 302.95 , 224.92 303.47 , 224.93 304.00 , 224.95 304.52 , 224.97 305.05 , 225.00 305.57 , 225.04 306.10 , 225.08 306.62 , 225.13 307.15 , 225.18 307.67 , 225.23 308.20 , 225.28 308.72 , 225.34 309.25 , 225.40 309.77 , 225.47 310.30 , 225.53 310.82 , 225.60 311.35 , 225.67 311.87 , 225.75 312.40 , 225.83 312.92 , 225.91 313.45 , 226.01 313.97 , 226.11 314.50 , 226.23 315.02 , 226.36 315.55 , 226.52 316.07 , 226.70 316.60 , 226.90 317.12 , 227.13 317.65 , 227.40 318.17 , 227.71 318.70 , 228.07 319.22 , 228.49 319.75 , 228.96 320.27 , 229.49 320.80 , 230.09 321.32 , 230.79 321.85 , 231.56 322.37 , 232.42 322.90 , 233.37 323.42 , 234.41 323.95 , 235.57 324.47 , 236.84 325.00 , 238.22 325.52 , 239.70 326.05 , 241.29 326.57 , 242.98 327.10 , 244.82 327.62 , 246.75 328.15 , 248.78 328.67 , 250.90 329.20 , 253.11 329.72 , 255.41 330.25 , 257.79 330.77 , 260.23 331.30 , 262.72 331.82 , 265.25 332.35 , 267.81 332.87 , 270.39 332.87 , 316.52 332.35 , 316.52 331.82 , 316.52 331.30 , 316.52 330.77 , 316.52 330.25 , 316.52 329.72 , 316.52 329.20 , 316.52 328.67 , 316.52 328.15 , 316.52 327.62 , 316.52 327.10 , 316.52 326.57 , 316.52 326.05 , 316.52 325.52 , 316.52 325.00 , 316.52 324.47 , 316.52 323.95 , 316.52 323.42 , 316.52 322.90 , 316.52 322.37 , 316.52 321.85 , 316.52 321.32 , 316.52 320.80 , 316.52 320.27 , 316.52 319.75 , 316.52 319.22 , 316.52 318.70 , 316.52 318.17 , 316.52 317.65 , 316.52 317.12 , 316.52 316.60 , 316.52 316.07 , 316.52 315.55 , 316.52 315.02 , 316.52 314.50 , 316.52 313.97 , 316.52 313.45 , 316.52 312.92 , 316.52 312.40 , 316.52 311.87 , 316.52 311.35 , 316.52 310.82 , 316.52 310.30 , 316.52 309.77 , 316.52 309.25 , 316.52 308.72 , 316.52 308.20 , 316.52 307.67 , 316.52 307.15 , 316.52 306.62 , 316.52 306.10 , 316.52 305.57 , 316.52 305.05 , 316.52 304.52 , 316.52 304.00 , 316.52 303.47 , 316.52 302.95 , 316.52 302.42 , 316.52 301.90 , 316.52 301.37 , 316.52 300.85 , 316.52 300.32 , 316.52 299.80 , 316.52 299.27 , 316.52 298.75 , 316.52 298.22 , 316.52 297.70 , 316.52 297.17 , 316.52 296.65 , 316.52 296.12 , 316.52 295.60 , 316.52 295.07 , 316.52 294.55 , 316.52 294.02 , 316.52 293.50 , 316.52 292.97 , 316.52 292.45 , 316.52 291.92 , 316.52 291.40 , 316.52 290.87 , 316.52 290.35 , 316.52 289.82 , 316.52 289.30 , 316.52 288.77 , 316.52 288.25 , 316.52 287.72 , 316.52 287.20 , 316.52 286.67 , 316.52 286.15 , 316.52 285.62 , 316.52 285.10 , 316.52 284.57 , 316.52 284.05 , 316.52 283.52 , 316.52 283.00 , 316.52 282.47 , 316.52 281.95 , 316.52 281.42 , 316.52 280.90 , 316.52 280.37 , 316.52 279.85 , 316.52 279.32 , 316.52 278.80 , 316.52 278.27 , 316.52 277.75 , 316.52 277.22 , 316.52 276.70 , 316.52 276.17 , 316.52 275.65 , 316.52 275.13 , 316.52 274.60 , 316.52 274.08 , 316.52 273.55 , 316.52 273.03 , 316.52 272.50 , 316.52 271.98 , 316.52 271.45 , 316.52 270.93 , 316.52 270.40 , 316.52 269.88 , 316.52 269.35 , 316.52 268.83 , 316.52 268.30 , 316.52 267.78 , 316.52 267.25 , 316.52 266.73 , 316.52 266.20 , 316.52 265.68 , 316.52 265.15 , 316.52 264.63 , 316.52 264.10 , 316.52 263.58 , 316.52 263.05 , 316.52 262.53 , 316.52 262.00 , 316.52 261.48 , 316.52 260.95 , 316.52 260.43 , 316.52 259.90 , 316.52 259.38 , 316.52 258.85 , 316.52 258.33 , 316.52 257.80 , 316.52 257.28 , 316.52 256.75 , 316.52 256.23 , 316.52 255.70 , 316.52 255.18 , 316.52 254.65 , 316.52 254.13 , 316.52 253.60 , 316.52 253.08 , 316.52 252.55 , 316.52 252.03 , 316.52 251.50 , 316.52 250.98 , 316.52 250.45 , 316.52 249.93 , 316.52 249.40 , 316.52 248.88 , 316.52 248.35 , 316.52 247.83 , 316.52 247.30 , 316.52 246.78 , 316.52 246.25 , 316.52 245.73 , 316.52 245.20 , 316.52 244.68 , 316.52 244.15 , 316.52 243.63 , 316.52 243.10 , 316.52 242.58 , 316.52 242.05 , 316.52 241.53 , 316.52 241.00 , 316.52 240.48 , 316.52 239.95 , 316.52 239.43 , 316.52 238.90 , 316.52 238.38 , 316.52 237.85 , 316.52 237.33 , 316.52 236.80 , 316.52 236.28 , 316.52 235.75 , 316.52 235.23 , 316.52 234.70 , 316.52 234.18 , 316.52 233.65 , 316.52 233.13 , 316.52 232.60 , 316.52 232.08 , 316.52 231.55 , 316.52 231.03 , 316.52 230.50 , 316.52 229.98 , 316.52 229.45 , 316.52 228.93 , 316.52 228.40 , 316.52 227.88 , 316.52 227.35 , 316.52 226.83 , 316.52 226.30 , 316.52 225.78 , 316.52 225.25 , 316.52 224.73 , 316.52 224.20 , 316.52 223.68 , 316.52 223.15 , 316.52 222.63 , 316.52 222.10 , 316.52 221.58 , 316.52 221.05 , 316.52 220.53 , 316.52 220.00 , 316.52 219.48 , 316.52 218.95 , 316.52 218.43 , 316.52 217.90 , 316.52 217.38 , 316.52 216.85 , 316.52 216.33 , 316.52 215.80 , 316.52 215.28 , 316.52 214.75 , 316.52 214.23 , 316.52 213.70 , 316.52 213.18 , 316.52 212.65 , 316.52 212.13 , 316.52 211.60 , 316.52 211.08 , 316.52 210.55 , 316.52 210.03 , 316.52 209.50 , 316.52 208.98 , 316.52 208.45 , 316.52 207.93 , 316.52 207.40 , 316.52 206.88 , 316.52 206.35 , 316.52 205.83 , 316.52 205.30 , 316.52 204.78 , 316.52 204.25 , 316.52 203.73 , 316.52 203.20 , 316.52 202.68 , 316.52 202.15 , 316.52 201.63 , 316.52 201.10 , 316.52 200.58 , 316.52 200.05 , 316.52 199.53 , 316.52 199.00 , 316.52 198.48 , 316.52 197.95 , 316.52 197.43 , 316.52 196.90 , 316.52 196.38 , 316.52 195.85 , 316.52 195.33 , 316.52 194.80 , 316.52 194.28 , 316.52 193.76 , 316.52 193.23 , 316.52 192.71 , 316.52 192.18 , 316.52 191.66 , 316.52 191.13 , 316.52 190.61 , 316.52 190.08 , 316.52 189.56 , 316.52 189.03 , 316.52 188.51 , 316.52 187.98 , 316.52 187.46 , 316.52 186.93 , 316.52 186.41 , 316.52 185.88 , 316.52 185.36 , 316.52 184.83 , 316.52 184.31 , 316.52 183.78 , 316.52 183.26 , 316.52 182.73 , 316.52 182.21 , 316.52 181.68 , 316.52 181.16 , 316.52 180.63 , 316.52 180.11 , 316.52 179.58 , 316.52 179.06 , 316.52 178.53 , 316.52 178.01 , 316.52 177.48 , 316.52 176.96 , 316.52 176.43 , 316.52 175.91 , 316.52 175.38 , 316.52 174.86 , 316.52 174.33 , 316.52 173.81 , 316.52 173.28 , 316.52 172.76 , 316.52 172.23 , 316.52 171.71 , 316.52 171.18 , 316.52 170.66 , 316.52 170.13 , 316.52 169.61 , 316.52 169.08 , 316.52 168.56 , 316.52 168.03 , 316.52 167.51 , 316.52 166.98 , 316.52 166.46 , 316.52 165.93 , 316.52 165.41 , 316.52 164.88 , 316.52 164.36 , 316.52 163.83 , 316.52 163.31 , 316.52 162.78 , 316.52 162.26 , 316.52 161.73 , 316.52 161.21 , 316.52 160.68 , 316.52 160.16 , 316.52 159.63 , 316.52 159.11 , 316.52 158.58 , 316.52 158.06 , 316.52 157.53 , 316.52 157.01 , 316.52 156.48 , 316.52 155.96 , 316.52 155.43 , 316.52 154.91 , 316.52 154.38 , 316.52 153.86 , 316.52 153.33 , 316.52 152.81 , 316.52 152.28 , 316.52 151.76 , 316.52 151.23 , 316.52 150.71 , 316.52 150.18 , 316.52 149.66 , 316.52 149.13 , 316.52 148.61 , 316.52 148.08 , 316.52 147.56 , 316.52 147.03 , 316.52 146.51 , 316.52 145.98 , 316.52 145.46 , 316.52 144.93 , 316.52 144.41 , 316.52 143.88 , 316.52 143.36 , 316.52 142.83 , 316.52 142.31 , 316.52 141.78 , 316.52 141.26 , 316.52 140.73 , 316.52 140.21 , 316.52 139.68 , 316.52 139.16 , 316.52 138.63 , 316.52 138.11 , 316.52 137.58 , 316.52 137.06 , 316.52 136.53 , 316.52 136.01 , 316.52 135.48 , 316.52 134.96 , 316.52 134.43 , 316.52 133.91 , 316.52 133.38 , 316.52 132.86 , 316.52 132.33 , 316.52 131.81 , 316.52 131.28 , 316.52 130.76 , 316.52 130.23 , 316.52 129.71 , 316.52 129.18 , 316.52 128.66 , 316.52 128.13 , 316.52 127.61 , 316.52 127.08 , 316.52 126.56 , 316.52 126.03 , 316.52 125.51 , 316.52 124.98 , 316.52 124.46 , 316.52 123.93 , 316.52 123.41 , 316.52 122.88 , 316.52 122.36 , 316.52 121.83 , 316.52 121.31 , 316.52 120.78 , 316.52 120.26 , 316.52 119.73 , 316.52 119.21 , 316.52 118.68 , 316.52 118.16 , 316.52 117.63 , 316.52 117.11 , 316.52 116.58 , 316.52 116.06 , 316.52 115.53 , 316.52 115.01 , 316.52 114.48 , 316.52 113.96 , 316.52 113.44 , 316.52 112.91 , 316.52 112.39 , 316.52 111.86 , 316.52 111.34 , 316.52 110.81 , 316.52 110.29 , 316.52 109.76 , 316.52 109.24 , 316.52 108.71 , 316.52 108.19 , 316.52 107.66 , 316.52 107.14 , 316.52 106.61 , 316.52 106.09 , 316.52 105.56 , 316.52 105.04 , 316.52 104.51 , 316.52 103.99 , 316.52 103.46 , 316.52 102.94 , 316.52 102.41 , 316.52 101.89 , 316.52 101.36 , 316.52 100.84 , 316.52 100.31 , 316.52 99.79 , 316.52 99.26 , 316.52 98.74 , 316.52 98.21 , 316.52 97.69 , 316.52 97.16 , 316.52 96.64 , 316.52 96.11 , 316.52 95.59 , 316.52 95.06 , 316.52 94.54 , 316.52 94.01 , 316.52 93.49 , 316.52 92.96 , 316.52 92.44 , 316.52 91.91 , 316.52 91.39 , 316.52 90.86 , 316.52 90.34 , 316.52 89.81 , 316.52 89.29 , 316.52 88.76 , 316.52 88.24 , 316.52 87.71 , 316.52 87.19 , 316.52 86.66 , 316.52 86.14 , 316.52 85.61 , 316.52 85.09 , 316.52 84.56 , 316.52 84.04 , 316.52 83.51 , 316.52 82.99 , 316.52 82.46 , 316.52 81.94 , 316.52 81.41 , 316.52 80.89 , 316.52 80.36 , 316.52 79.84 , 316.52 79.31 , 316.52 78.79 , 316.52 78.26 , 316.52 77.74 , 316.52 77.21 , 316.52 76.69 , 316.52 76.16 , 316.52 75.64 , 316.52 75.11 , 316.52 74.59 , 316.52 74.06 , 316.52 73.54 , 316.52 73.01 , 316.52 72.49 , 316.52 71.96 , 316.52 71.44 , 316.52 70.91 , 316.52 70.39 , 316.52 69.86 , 316.52 69.34 , 316.52 68.81 , 316.52 68.29 , 316.52 67.76 , 316.52 67.24 , 316.52 66.71 , 316.52 66.19 , 316.52 65.66 , 316.52 65.14 , 316.52 64.61 , 316.52 64.61 , 98.43 " style="stroke-width:1;stroke:#F8766D;fill:#000000;stroke-opacity:1.000000;fill-opacity:0.000000"/>
<polyline points="64.61 , 93.65 65.14 , 85.48 65.66 , 77.82 66.19 , 70.71 66.71 , 64.19 67.24 , 58.28 67.76 , 53.12 68.29 , 48.69 68.81 , 44.93 69.34 , 41.82 69.86 , 39.36 70.39 , 37.54 70.91 , 36.50 71.44 , 36.03 71.96 , 36.09 72.49 , 36.65 73.01 , 37.68 73.54 , 39.17 74.06 , 41.09 74.59 , 43.31 75.11 , 45.81 75.64 , 48.53 76.16 , 51.45 76.69 , 54.55 77.21 , 57.76 77.74 , 61.03 78.26 , 64.34 78.79 , 67.67 79.31 , 70.99 79.84 , 74.27 80.36 , 77.50 80.89 , 80.67 81.41 , 83.76 81.94 , 86.78 82.46 , 89.69 82.99 , 92.50 83.51 , 95.22 84.04 , 97.85 84.56 , 100.39 85.09 , 102.83 85.61 , 105.16 86.14 , 107.41 86.66 , 109.59 87.19 , 111.68 87.71 , 113.71 88.24 , 115.65 88.76 , 117.52 89.29 , 119.34 89.81 , 121.10 90.34 , 122.80 90.86 , 124.46 91.39 , 126.06 91.91 , 127.62 92.44 , 129.14 92.96 , 130.62 93.49 , 132.07 94.01 , 133.48 94.54 , 134.86 95.06 , 136.21 95.59 , 137.53 96.11 , 138.83 96.64 , 140.10 97.16 , 141.34 97.69 , 142.55 98.21 , 143.75 98.74 , 144.92 99.26 , 146.07 99.79 , 147.19 100.31 , 148.29 100.84 , 149.37 101.36 , 150.43 101.89 , 151.46 102.41 , 152.47 102.94 , 153.46 103.46 , 154.42 103.99 , 155.36 104.51 , 156.28 105.04 , 157.18 105.56 , 158.05 106.09 , 158.90 106.61 , 159.73 107.14 , 160.53 107.66 , 161.32 108.19 , 162.09 108.71 , 162.83 109.24 , 163.55 109.76 , 164.26 110.29 , 164.95 110.81 , 165.62 111.34 , 166.28 111.86 , 166.92 112.39 , 167.54 112.91 , 168.15 113.44 , 168.75 113.96 , 169.34 114.48 , 169.92 115.01 , 170.49 115.53 , 171.04 116.06 , 171.59 116.58 , 172.14 117.11 , 172.67 117.63 , 173.20 118.16 , 173.72 118.68 , 174.24 119.21 , 174.75 119.73 , 175.25 120.26 , 175.75 120.78 , 176.25 121.31 , 176.74 121.83 , 177.22 122.36 , 177.70 122.88 , 178.18 123.41 , 178.65 123.93 , 179.12 124.46 , 179.58 124.98 , 180.03 125.51 , 180.48 126.03 , 180.93 126.56 , 181.37 127.08 , 181.80 127.61 , 182.22 128.13 , 182.65 128.66 , 183.06 129.18 , 183.47 129.71 , 183.87 130.23 , 184.27 130.76 , 184.66 131.28 , 185.05 131.81 , 185.43 132.33 , 185.81 132.86 , 186.18 133.38 , 186.55 133.91 , 186.92 134.43 , 187.28 134.96 , 187.65 135.48 , 188.01 136.01 , 188.38 136.53 , 188.74 137.06 , 189.11 137.58 , 189.48 138.11 , 189.85 138.63 , 190.22 139.16 , 190.60 139.68 , 190.97 140.21 , 191.35 140.73 , 191.73 141.26 , 192.12 141.78 , 192.50 142.31 , 192.88 142.83 , 193.27 143.36 , 193.65 143.88 , 194.03 144.41 , 194.40 144.93 , 194.77 145.46 , 195.14 145.98 , 195.50 146.51 , 195.85 147.03 , 196.19 147.56 , 196.53 148.08 , 196.86 148.61 , 197.18 149.13 , 197.49 149.66 , 197.79 150.18 , 198.08 150.71 , 198.36 151.23 , 198.64 151.76 , 198.90 152.28 , 199.16 152.81 , 199.41 153.33 , 199.65 153.86 , 199.89 154.38 , 200.12 154.91 , 200.35 155.43 , 200.58 155.96 , 200.80 156.48 , 201.01 157.01 , 201.23 157.53 , 201.44 158.06 , 201.65 158.58 , 201.86 159.11 , 202.07 159.63 , 202.28 160.16 , 202.48 160.68 , 202.69 161.21 , 202.89 161.73 , 203.10 162.26 , 203.30 162.78 , 203.50 163.31 , 203.70 163.83 , 203.89 164.36 , 204.09 164.88 , 204.28 165.41 , 204.47 165.93 , 204.66 166.46 , 204.85 166.98 , 205.04 167.51 , 205.22 168.03 , 205.40 168.56 , 205.58 169.08 , 205.76 169.61 , 205.93 170.13 , 206.11 170.66 , 206.27 171.18 , 206.44 171.71 , 206.61 172.23 , 206.77 172.76 , 206.93 173.28 , 207.08 173.81 , 207.23 174.33 , 207.38 174.86 , 207.52 175.38 , 207.67 175.91 , 207.80 176.43 , 207.94 176.96 , 208.07 177.48 , 208.19 178.01 , 208.32 178.53 , 208.44 179.06 , 208.55 179.58 , 208.67 180.11 , 208.78 180.63 , 208.89 181.16 , 209.00 181.68 , 209.11 182.21 , 209.22 182.73 , 209.33 183.26 , 209.44 183.78 , 209.55 184.31 , 209.66 184.83 , 209.78 185.36 , 209.89 185.88 , 210.01 186.41 , 210.13 186.93 , 210.26 187.46 , 210.39 187.98 , 210.52 188.51 , 210.66 189.03 , 210.80 189.56 , 210.94 190.08 , 211.09 190.61 , 211.25 191.13 , 211.41 191.66 , 211.57 192.18 , 211.74 192.71 , 211.91 193.23 , 212.09 193.76 , 212.27 194.28 , 212.45 194.80 , 212.63 195.33 , 212.82 195.85 , 213.01 196.38 , 213.19 196.90 , 213.38 197.43 , 213.57 197.95 , 213.76 198.48 , 213.94 199.00 , 214.13 199.53 , 214.31 200.05 , 214.48 200.58 , 214.65 201.10 , 214.82 201.63 , 214.98 202.15 , 215.13 202.68 , 215.28 203.20 , 215.42 203.73 , 215.56 204.25 , 215.69 204.78 , 215.81 205.30 , 215.93 205.83 , 216.04 206.35 , 216.15 206.88 , 216.25 207.40 , 216.35 207.93 , 216.44 208.45 , 216.53 208.98 , 216.62 209.50 , 216.70 210.03 , 216.79 210.55 , 216.87 211.08 , 216.95 211.60 , 217.03 212.13 , 217.11 212.65 , 217.19 213.18 , 217.27 213.70 , 217.35 214.23 , 217.43 214.75 , 217.51 215.28 , 217.59 215.80 , 217.67 216.33 , 217.75 216.85 , 217.84 217.38 , 217.92 217.90 , 218.00 218.43 , 218.08 218.95 , 218.16 219.48 , 218.25 220.00 , 218.33 220.53 , 218.42 221.05 , 218.50 221.58 , 218.59 222.10 , 218.68 222.63 , 218.77 223.15 , 218.86 223.68 , 218.96 224.20 , 219.06 224.73 , 219.16 225.25 , 219.27 225.78 , 219.38 226.30 , 219.50 226.83 , 219.61 227.35 , 219.74 227.88 , 219.86 228.40 , 219.99 228.93 , 220.13 229.45 , 220.27 229.98 , 220.41 230.50 , 220.56 231.03 , 220.71 231.55 , 220.86 232.08 , 221.02 232.60 , 221.17 233.13 , 221.33 233.65 , 221.49 234.18 , 221.65 234.70 , 221.80 235.23 , 221.96 235.75 , 222.11 236.28 , 222.26 236.80 , 222.40 237.33 , 222.55 237.85 , 222.68 238.38 , 222.82 238.90 , 222.94 239.43 , 223.06 239.95 , 223.18 240.48 , 223.29 241.00 , 223.39 241.53 , 223.49 242.05 , 223.58 242.58 , 223.67 243.10 , 223.75 243.63 , 223.83 244.15 , 223.90 244.68 , 223.97 245.20 , 224.04 245.73 , 224.10 246.25 , 224.16 246.78 , 224.22 247.30 , 224.27 247.83 , 224.33 248.35 , 224.38 248.88 , 224.44 249.40 , 224.49 249.93 , 224.54 250.45 , 224.59 250.98 , 224.64 251.50 , 224.70 252.03 , 224.75 252.55 , 224.80 253.08 , 224.85 253.60 , 224.90 254.13 , 224.95 254.65 , 225.00 255.18 , 225.05 255.70 , 225.09 256.23 , 225.13 256.75 , 225.18 257.28 , 225.22 257.80 , 225.25 258.33 , 225.29 258.85 , 225.32 259.38 , 225.35 259.90 , 225.37 260.43 , 225.40 260.95 , 225.41 261.48 , 225.43 262.00 , 225.45 262.53 , 225.46 263.05 , 225.47 263.58 , 225.48 264.10 , 225.49 264.63 , 225.49 265.15 , 225.50 265.68 , 225.50 266.20 , 225.51 266.73 , 225.52 267.25 , 225.52 267.78 , 225.53 268.30 , 225.54 268.83 , 225.55 269.35 , 225.56 269.88 , 225.57 270.40 , 225.58 270.93 , 225.59 271.45 , 225.60 271.98 , 225.61 272.50 , 225.62 273.03 , 225.63 273.55 , 225.64 274.08 , 225.64 274.60 , 225.64 275.13 , 225.65 275.65 , 225.64 276.17 , 225.64 276.70 , 225.63 277.22 , 225.61 277.75 , 225.60 278.27 , 225.58 278.80 , 225.55 279.32 , 225.52 279.85 , 225.49 280.37 , 225.46 280.90 , 225.42 281.42 , 225.39 281.95 , 225.35 282.47 , 225.31 283.00 , 225.27 283.52 , 225.23 284.05 , 225.20 284.57 , 225.16 285.10 , 225.13 285.62 , 225.10 286.15 , 225.08 286.67 , 225.06 287.20 , 225.05 287.72 , 225.05 288.25 , 225.04 288.77 , 225.05 289.30 , 225.06 289.82 , 225.08 290.35 , 225.10 290.87 , 225.13 291.40 , 225.16 291.92 , 225.19 292.45 , 225.23 292.97 , 225.28 293.50 , 225.33 294.02 , 225.38 294.55 , 225.43 295.07 , 225.48 295.60 , 225.54 296.12 , 225.59 296.65 , 225.65 297.17 , 225.70 297.70 , 225.76 298.22 , 225.82 298.75 , 225.88 299.27 , 225.94 299.80 , 226.00 300.32 , 226.05 300.85 , 226.12 301.37 , 226.18 301.90 , 226.24 302.42 , 226.31 302.95 , 226.37 303.47 , 226.44 304.00 , 226.52 304.52 , 226.59 305.05 , 226.67 305.57 , 226.76 306.10 , 226.85 306.62 , 226.94 307.15 , 227.03 307.67 , 227.14 308.20 , 227.24 308.72 , 227.35 309.25 , 227.47 309.77 , 227.59 310.30 , 227.71 310.82 , 227.85 311.35 , 227.99 311.87 , 228.13 312.40 , 228.28 312.92 , 228.44 313.45 , 228.62 313.97 , 228.80 314.50 , 229.00 315.02 , 229.21 315.55 , 229.43 316.07 , 229.69 316.60 , 229.96 317.12 , 230.26 317.65 , 230.59 318.17 , 230.96 318.70 , 231.37 319.22 , 231.83 319.75 , 232.33 320.27 , 232.90 320.80 , 233.52 321.32 , 234.21 321.85 , 234.98 322.37 , 235.83 322.90 , 236.77 323.42 , 237.79 323.95 , 238.90 324.47 , 240.12 325.00 , 241.44 325.52 , 242.87 326.05 , 244.40 326.57 , 246.03 327.10 , 247.75 327.62 , 249.60 328.15 , 251.55 328.67 , 253.58 329.20 , 255.70 329.72 , 257.90 330.25 , 260.17 330.77 , 262.51 331.30 , 264.90 331.82 , 267.33 332.35 , 269.78 332.87 , 272.26 332.87 , 316.52 332.35 , 316.52 331.82 , 316.52 331.30 , 316.52 330.77 , 316.52 330.25 , 316.52 329.72 , 316.52 329.20 , 316.52 328.67 , 316.52 328.15 , 316.52 327.62 , 316.52 327.10 , 316.52 326.57 , 316.52 326.05 , 316.52 325.52 , 316.52 325.00 , 316.52 324.47 , 316.52 323.95 , 316.52 323.42 , 316.52 322.90 , 316.52 322.37 , 316.52 321.85 , 316.52 321.32 , 316.52 320.80 , 316.52 320.27 , 316.52 319.75 , 316.52 319.22 , 316.52 318.70 , 316.52 318.17 , 316.52 317.65 , 316.52 317.12 , 316.52 316.60 , 316.52 316.07 , 316.52 315.55 , 316.52 315.02 , 316.52 314.50 , 316.52 313.97 , 316.52 313.45 , 316.52 312.92 , 316.52 312.40 , 316.52 311.87 , 316.52 311.35 , 316.52 310.82 , 316.52 310.30 , 316.52 309.77 , 316.52 309.25 , 316.52 308.72 , 316.52 308.20 , 316.52 307.67 , 316.52 307.15 , 316.52 306.62 , 316.52 306.10 , 316.52 305.57 , 316.52 305.05 , 316.52 304.52 , 316.52 304.00 , 316.52 303.47 , 316.52 302.95 , 316.52 302.42 , 316.52 301.90 , 316.52 301.37 , 316.52 300.85 , 316.52 300.32 , 316.52 299.80 , 316.52 299.27 , 316.52 298.75 , 316.52 298.22 , 316.52 297.70 , 316.52 297.17 , 316.52 296.65 , 316.52 296.12 , 316.52 295.60 , 316.52 295.07 , 316.52 294.55 , 316.52 294.02 , 316.52 293.50 , 316.52 292.97 , 316.52 292.45 , 316.52 291.92 , 316.52 291.40 , 316.52 290.87 , 316.52 290.35 , 316.52 289.82 , 316.52 289.30 , 316.52 288.77 , 316.52 288.25 , 316.52 287.72 , 316.52 287.20 , 316.52 286.67 , 316.52 286.15 , 316.52 285.62 , 316.52 285.10 , 316.52 284.57 , 316.52 284.05 , 316.52 283.52 , 316.52 283.00 , 316.52 282.47 , 316.52 281.95 , 316.52 281.42 , 316.52 280.90 , 316.52 280.37 , 316.52 279.85 , 316.52 279.32 , 316.52 278.80 , 316.52 278.27 , 316.52 277.75 , 316.52 277.22 , 316.52 276.70 , 316.52 276.17 , 316.52 275.65 , 316.52 275.13 , 316.52 274.60 , 316.52 274.08 , 316.52 273.55 , 316.52 273.03 , 316.52 272.50 , 316.52 271.98 , 316.52 271.45 , 316.52 270.93 , 316.52 270.40 , 316.52 269.88 , 316.52 269.35 , 316.52 268.83 , 316.52 268.30 , 316.52 267.78 , 316.52 267.25 , 316.52 266.73 , 316.52 266.20 , 316.52 265.68 , 316.52 265.15 , 316.52 264.63 , 316.52 264.10 , 316.52 263.58 , 316.52 263.05 , 316.52 262.53 , 316.52 262.00 , 316.52 261.48 , 316.52 260.95 , 316.52 260.43 , 316.52 259.90 , 316.52 259.38 , 316.52 258.85 , 316.52 258.33 , 316.52 257.80 , 316.52 257.28 , 316.52 256.75 , 316.52 256.23 , 316.52 255.70 , 316.52 255.18 , 316.52 254.65 , 316.52 254.13 , 316.52 253.60 , 316.52 253.08 , 316.52 252.55 , 316.52 252.03 , 316.52 251.50 , 316.52 250.98 , 316.52 250.45 , 316.52 249.93 , 316.52 249.40 , 316.52 248.88 , 316.52 248.35 , 316.52 247.83 , 316.52 247.30 , 316.52 246.78 , 316.52 246.25 , 316.52 245.73 , 316.52 245.20 , 316.52 244.68 , 316.52 244.15 , 316.52 243.63 , 316.52 243.10 , 316.52 242.58 , 316.52 242.05 , 316.52 241.53 , 316.52 241.00 , 316.52 240.48 , 316.52 239.95 , 316.52 239.43 , 316.52 238.90 , 316.52 238.38 , 316.52 237.85 , 316.52 237.33 , 316.52 236.80 , 316.52 236.28 , 316.52 235.75 , 316.52 235.23 , 316.52 234.70 , 316.52 234.18 , 316.52 233.65 , 316.52 233.13 , 316.52 232.60 , 316.52 232.08 , 316.52 231.55 , 316.52 231.03 , 316.52 230.50 , 316.52 229.98 , 316.52 229.45 , 316.52 228.93 , 316.52 228.40 , 316.52 227.88 , 316.52 227.35 , 316.52 226.83 , 316.52 226.30 , 316.52 225.78 , 316.52 225.25 , 316.52 224.73 , 316.52 224.20 , 316.52 223.68 , 316.52 223.15 , 316.52 222.63 , 316.52 222.10 , 316.52 221.58 , 316.52 221.05 , 316.52 220.53 , 316.52 220.00 , 316.52 219.48 , 316.52 218.95 , 316.52 218.43 , 316.52 217.90 , 316.52 217.38 , 316.52 216.85 , 316.52 216.33 , 316.52 215.80 , 316.52 215.28 , 316.52 214.75 , 316.52 214.23 , 316.52 213.70 , 316.52 213.18 , 316.52 212.65 , 316.52 212.13 , 316.52 211.60 , 316.52 211.08 , 316.52 210.55 , 316.52 210.03 , 316.52 209.50 , 316.52 208.98 , 316.52 208.45 , 316.52 207.93 , 316.52 207.40 , 316.52 206.88 , 316.52 206.35 , 316.52 205.83 , 316.52 205.30 , 316.52 204.78 , 316.52 204.25 , 316.52 203.73 , 316.52 203.20 , 316.52 202.68 , 316.52 202.15 , 316.52 201.63 , 316.52 201.10 , 316.52 200.58 , 316.52 200.05 , 316.52 199.53 , 316.52 199.00 , 316.52 198.48 , 316.52 197.95 , 316.52 197.43 , 316.52 196.90 , 316.52 196.38 , 316.52 195.85 , 316.52 195.33 , 316.52 194.80 , 316.52 194.28 , 316.52 193.76 , 316.52 193.23 , 316.52 192.71 , 316.52 192.18 , 316.52 191.66 , 316.52 191.13 , 316.52 190.61 , 316.52 190.08 , 316.52 189.56 , 316.52 189.03 , 316.52 188.51 , 316.52 187.98 , 316.52 187.46 , 316.52 186.93 , 316.52 186.41 , 316.52 185.88 , 316.52 185.36 , 316.52 184.83 , 316.52 184.31 , 316.52 183.78 , 316.52 183.26 , 316.52 182.73 , 316.52 182.21 , 316.52 181.68 , 316.52 181.16 , 316.52 180.63 , 316.52 180.11 , 316.52 179.58 , 316.52 179.06 , 316.52 178.53 , 316.52 178.01 , 316.52 177.48 , 316.52 176.96 , 316.52 176.43 , 316.52 175.91 , 316.52 175.38 , 316.52 174.86 , 316.52 174.33 , 316.52 173.81 , 316.52 173.28 , 316.52 172.76 , 316.52 172.23 , 316.52 171.71 , 316.52 171.18 , 316.52 170.66 , 316.52 170.13 , 316.52 169.61 , 316.52 169.08 , 316.52 168.56 , 316.52 168.03 , 316.52 167.51 , 316.52 166.98 , 316.52 166.46 , 316.52 165.93 , 316.52 165.41 , 316.52 164.88 , 316.52 164.36 , 316.52 163.83 , 316.52 163.31 , 316.52 162.78 , 316.52 162.26 , 316.52 161.73 , 316.52 161.21 , 316.52 160.68 , 316.52 160.16 , 316.52 159.63 , 316.52 159.11 , 316.52 158.58 , 316.52 158.06 , 316.52 157.53 , 316.52 157.01 , 316.52 156.48 , 316.52 155.96 , 316.52 155.43 , 316.52 154.91 , 316.52 154.38 , 316.52 153.86 , 316.52 153.33 , 316.52 152.81 , 316.52 152.28 , 316.52 151.76 , 316.52 151.23 , 316.52 150.71 , 316.52 150.18 , 316.52 149.66 , 316.52 149.13 , 316.52 148.61 , 316.52 148.08 , 316.52 147.56 , 316.52 147.03 , 316.52 146.51 , 316.52 145.98 , 316.52 145.46 , 316.52 144.93 , 316.52 144.41 , 316.52 143.88 , 316.52 143.36 , 316.52 142.83 , 316.52 142.31 , 316.52 141.78 , 316.52 141.26 , 316.52 140.73 , 316.52 140.21 , 316.52 139.68 , 316.52 139.16 , 316.52 138.63 , 316.52 138.11 , 316.52 137.58 , 316.52 137.06 , 316.52 136.53 , 316.52 136.01 , 316.52 135.48 , 316.52 134.96 , 316.52 134.43 , 316.52 133.91 , 316.52 133.38 , 316.52 132.86 , 316.52 132.33 , 316.52 131.81 , 316.52 131.28 , 316.52 130.76 , 316.52 130.23 , 316.52 129.71 , 316.52 129.18 , 316.52 128.66 , 316.52 128.13 , 316.52 127.61 , 316.52 127.08 , 316.52 126.56 , 316.52 126.03 , 316.52 125.51 , 316.52 124.98 , 316.52 124.46 , 316.52 123.93 , 316.52 123.41 , 316.52 122.88 , 316.52 122.36 , 316.52 121.83 , 316.52 121.31 , 316.52 120.78 , 316.52 120.26 , 316.52 119.73 , 316.52 119.21 , 316.52 118.68 , 316.52 118.16 , 316.52 117.63 , 316.52 117.11 , 316.52 116.58 , 316.52 116.06 , 316.52 115.53 , 316.52 115.01 , 316.52 114.48 , 316.52 113.96 , 316.52 113.44 , 316.52 112.91 , 316.52 112.39 , 316.52 111.86 , 316.52 111.34 , 316.52 110.81 , 316.52 110.29 , 316.52 109.76 , 316.52 109.24 , 316.52 108.71 , 316.52 108.19 , 316.52 107.66 , 316.52 107.14 , 316.52 106.61 , 316.52 106.09 , 316.52 105.56 , 316.52 105.04 , 316.52 104.51 , 316.52 103.99 , 316.52 103.46 , 316.52 102.94 , 316.52 102.41 , 316.52 101.89 , 316.52 101.36 , 316.52 100.84 , 316.52 100.31 , 316.52 99.79 , 316.52 99.26 , 316.52 98.74 , 316.52 98.21 , 316.52 97.69 , 316.52 97.16 , 316.52 96.64 , 316.52 96.11 , 316.52 95.59 , 316.52 95.06 , 316.52 94.54 , 316.52 94.01 , 316.52 93.49 , 316.52 92.96 , 316.52 92.44 , 316.52 91.91 , 316.52 91.39 , 316.52 90.86 , 316.52 90.34 , 316.52 89.81 , 316.52 89.29 , 316.52 88.76 , 316.52 88.24 , 316.52 87.71 , 316.52 87.19 , 316.52 86.66 , 316.52 86.14 , 316.52 85.61 , 316.52 85.09 , 316.52 84.56 , 316.52 84.04 , 316.52 83.51 , 316.52 82.99 , 316.52 82.46 , 316.52 81.94 , 316.52 81.41 , 316.52 80.89 , 316.52 80.36 , 316.52 79.84 , 316.52 79.31 , 316.52 78.79 , 316.52 78.26 , 316.52 77.74 , 316.52 77.21 , 316.52 76.69 , 316.52 76.16 , 316.52 75.64 , 316.52 75.11 , 316.52 74.59 , 316.52 74.06 , 316.52 73.54 , 316.52 73.01 , 316.52 72.49 , 316.52 71.96 , 316.52 71.44 , 316.52 70.91 , 316.52 70.39 , 316.52 69.86 , 316.52 69.34 , 316.52 68.81 , 316.52 68.29 , 316.52 67.76 , 316.52 67.24 , 316.52 66.71 , 316.52 66.19 , 316.52 65.66 , 316.52 65.14 , 316.52 64.61 , 316.52 64.61 , 93.65 " style="stroke-width:1;stroke:#00BFC4;fill:#000000;stroke-opacity:1.000000;fill-opacity:0.000000"/>
<polyline points="346.28 , 22.00 346.28 , 330.55 51.20 , 330.55 " style="stroke-width:1;stroke:#333333;fill:#000000;stroke-opacity:1.000000;fill-opacity:0.000000"/>
<text transform="translate(41.75,319.82)"  style="font-size:9" >0</text>
<text transform="translate(21.50,256.02)"  style="font-size:9" >50000</text>
<text transform="translate(16.55,192.22)"  style="font-size:9" >100000</text>
<text transform="translate(16.55,128.42)"  style="font-size:9" >150000</text>
<text transform="translate(16.55,64.62)"  style="font-size:9" >200000</text>
<polyline points="48.45 , 316.52 51.20 , 316.52 " style="stroke-width:1;stroke:#333333;fill:#000000;stroke-opacity:1.000000;fill-opacity:0.000000"/>
<polyline points="48.45 , 252.72 51.20 , 252.72 " style="stroke-width:1;stroke:#333333;fill:#000000;stroke-opacity:1.000000;fill-opacity:0.000000"/>
<polyline points="48.45 , 188.92 51.20 , 188.92 " style="stroke-width:1;stroke:#333333;fill:#000000;stroke-opacity:1.000000;fill-opacity:0.000000"/>
<polyline points="48.45 , 125.12 51.20 , 125.12 " style="stroke-width:1;stroke:#333333;fill:#000000;stroke-opacity:1.000000;fill-opacity:0.000000"/>
<polyline points="48.45 , 61.32 51.20 , 61.32 " style="stroke-width:1;stroke:#333333;fill:#000000;stroke-opacity:1.000000;fill-opacity:0.000000"/>
<polyline points="64.61 , 333.30 64.61 , 330.55 " style="stroke-width:1;stroke:#333333;fill:#000000;stroke-opacity:1.000000;fill-opacity:0.000000"/>
<polyline points="131.68 , 333.30 131.68 , 330.55 " style="stroke-width:1;stroke:#333333;fill:#000000;stroke-opacity:1.000000;fill-opacity:0.000000"/>
<polyline points="198.74 , 333.30 198.74 , 330.55 " style="stroke-width:1;stroke:#333333;fill:#000000;stroke-opacity:1.000000;fill-opacity:0.000000"/>
<polyline points="265.81 , 333.30 265.81 , 330.55 " style="stroke-width:1;stroke:#333333;fill:#000000;stroke-opacity:1.000000;fill-opacity:0.000000"/>
<polyline points="332.87 , 333.30 332.87 , 330.55 " style="stroke-width:1;stroke:#333333;fill:#000000;stroke-opacity:1.000000;fill-opacity:0.000000"/>
<text transform="translate(55.81,342.10)"  style="font-size:9" >0.00</text>
<text transform="translate(122.88,342.10)"  style="font-size:9" >0.25</text>
<text transform="translate(189.94,342.10)"  style="font-size:9" >0.50</text>
<text transform="translate(257.01,342.10)"  style="font-size:9" >0.75</text>
<text transform="translate(324.07,342.10)"  style="font-size:9" >1.00</text>
<text transform="translate(158.21,355.85)"  style="font-size:11" >Count of reports</text>
<text transform="translate(13.75,210.51) rotate(-90)"  style="font-size:11" >ISIGEM score</text>
<rect x="357.67" y="150.20" width="70.45" height="52.15" style="stroke-width:1;stroke:#FFFFFF;fill:#FFFFFF;stroke-opacity:0.000000;fill-opacity:1.000000" />
<text transform="translate(363.36,164.14)"  style="font-size:11" >kind</text>
<rect x="363.36" y="167.75" width="14.45" height="14.45" style="stroke-width:1;stroke:#FFFFFF;fill:#FFFFFF;stroke-opacity:0.000000;fill-opacity:1.000000" />
<rect x="364.07" y="168.46" width="13.03" height="13.03" style="stroke-width:1;stroke:#F8766D;fill:#FFFFFF;stroke-opacity:1.000000;fill-opacity:0.000000" />
<rect x="363.36" y="182.21" width="14.45" height="14.45" style="stroke-width:1;stroke:#FFFFFF;fill:#FFFFFF;stroke-opacity:0.000000;fill-opacity:1.000000" />
<rect x="364.07" y="182.92" width="13.03" height="13.03" style="stroke-width:1;stroke:#00BFC4;fill:#FFFFFF;stroke-opacity:1.000000;fill-opacity:0.000000" />
<text transform="translate(379.62,178.28)"  style="font-size:9" >DE mRNAs</text>
<text transform="translate(379.62,192.73)"  style="font-size:9" >overall</text>
<text transform="translate(51.20,15.40)"  style="font-size:13" >Distribution of ISIGEM scores</text>
</svg>
