<?xml version="1.0" encoding="UTF-8"?>
<svg xmlns="http://www.w3.org/2000/svg" width="433.62" height="361.35" viewBox="0,0,433.62,361.35">
<desc>R SVG Plot!</desc>
<rect width="100%" height="100%" style="fill:#FFFFFF"/>
<polygon points="0.00 , 0.00 433.62 , 0.00 433.62 , 361.35 0.00 , 361.35 " style="stroke-width:1;stroke:#FFFFFF;fill:#FFFFFF;stroke-opacity:1.000000;fill-opacity:1.000000" />
<polygon points="84.00 , 305.35 84.00 , 40.00 423.62 , 40.00 423.62 , 305.35 " style="stroke-width:1;stroke:#FFFFFF;fill:#FFFFFF;stroke-opacity:0.000000;fill-opacity:1.000000" />
<polyline points="99.44 , 126.37 108.94 , 227.37 118.44 , 249.80 127.94 , 266.05 137.44 , 274.02 146.94 , 279.89 156.44 , 284.81 165.94 , 288.40 175.44 , 286.82 184.94 , 286.37 194.44 , 289.05 203.94 , 289.83 213.44 , 290.84 222.94 , 293.29 232.44 , 289.83 241.94 , 287.30 251.44 , 293.29 260.93 , 289.05 270.43 , 287.30 279.93 , 293.29 289.43 , 293.29 298.93 , 293.29 308.43 , 293.29 317.93 , 293.29 327.43 , 289.05 336.93 , 290.84 346.43 , 293.29 355.93 , 293.29 365.43 , 293.29 374.93 , 293.29 384.43 , 293.29 393.93 , 286.82 403.43 , 293.29 " style="stroke-width:1;stroke:#E19E2E;fill:#000000;stroke-opacity:1.000000;fill-opacity:0.000000"/>
<polyline points="99.44 , 52.06 108.94 , 196.04 118.44 , 221.04 127.94 , 236.70 137.44 , 237.02 146.94 , 273.72 156.44 , 282.08 165.94 , 285.55 175.44 , 288.40 184.94 , 289.05 194.44 , 289.05 203.94 , 293.29 213.44 , 293.29 222.94 , 293.29 232.44 , 293.29 241.94 , 293.29 251.44 , 293.29 260.93 , 293.29 270.43 , 293.29 279.93 , 293.29 289.43 , 293.29 298.93 , 293.29 308.43 , 293.29 317.93 , 293.29 327.43 , 293.29 336.93 , 293.29 346.43 , 293.29 355.93 , 293.29 365.43 , 293.29 374.93 , 293.29 384.43 , 293.29 393.93 , 293.29 403.43 , 293.29 " style="stroke-width:1;stroke:#006400;fill:#000000;stroke-opacity:1.000000;fill-opacity:0.000000"/>
<polyline points="84.00 , 40.00 423.62 , 40.00 423.62 , 305.35 84.00 , 305.35 " style="stroke-width:1;stroke:#333333;fill:#000000;stroke-opacity:1.000000;fill-opacity:0.000000"/>
<text transform="translate(51.00,274.82)"  style="font-size:16" >100</text>
<text transform="translate(48.60,250.36)"  style="font-size:16" >400</text>
<text transform="translate(48.60,225.89)"  style="font-size:16" >900</text>
<text transform="translate(39.80,201.43)"  style="font-size:16" >1600</text>
<text transform="translate(39.80,176.96)"  style="font-size:16" >2500</text>
<text transform="translate(39.80,152.50)"  style="font-size:16" >3600</text>
<text transform="translate(39.80,128.03)"  style="font-size:16" >4900</text>
<text transform="translate(39.80,103.57)"  style="font-size:16" >6400</text>
<text transform="translate(39.80,79.10)"  style="font-size:16" >8100</text>
<text transform="translate(31.00,54.64)"  style="font-size:16" >10000</text>
<polyline points="79.00 , 268.82 84.00 , 268.82 " style="stroke-width:1;stroke:#333333;fill:#000000;stroke-opacity:1.000000;fill-opacity:0.000000"/>
<polyline points="79.00 , 244.36 84.00 , 244.36 " style="stroke-width:1;stroke:#333333;fill:#000000;stroke-opacity:1.000000;fill-opacity:0.000000"/>
<polyline points="79.00 , 219.89 84.00 , 219.89 " style="stroke-width:1;stroke:#333333;fill:#000000;stroke-opacity:1.000000;fill-opacity:0.000000"/>
<polyline points="79.00 , 195.43 84.00 , 195.43 " style="stroke-width:1;stroke:#333333;fill:#000000;stroke-opacity:1.000000;fill-opacity:0.000000"/>
<polyline points="79.00 , 170.96 84.00 , 170.96 " style="stroke-width:1;stroke:#333333;fill:#000000;stroke-opacity:1.000000;fill-opacity:0.000000"/>
<polyline points="79.00 , 146.50 84.00 , 146.50 " style="stroke-width:1;stroke:#333333;fill:#000000;stroke-opacity:1.000000;fill-opacity:0.000000"/>
<polyline points="79.00 , 122.03 84.00 , 122.03 " style="stroke-width:1;stroke:#333333;fill:#000000;stroke-opacity:1.000000;fill-opacity:0.000000"/>
<polyline points="79.00 , 97.57 84.00 , 97.57 " style="stroke-width:1;stroke:#333333;fill:#000000;stroke-opacity:1.000000;fill-opacity:0.000000"/>
<polyline points="79.00 , 73.10 84.00 , 73.10 " style="stroke-width:1;stroke:#333333;fill:#000000;stroke-opacity:1.000000;fill-opacity:0.000000"/>
<polyline points="79.00 , 48.64 84.00 , 48.64 " style="stroke-width:1;stroke:#333333;fill:#000000;stroke-opacity:1.000000;fill-opacity:0.000000"/>
<polyline points="146.94 , 310.35 146.94 , 305.35 " style="stroke-width:1;stroke:#333333;fill:#000000;stroke-opacity:1.000000;fill-opacity:0.000000"/>
<polyline points="194.44 , 310.35 194.44 , 305.35 " style="stroke-width:1;stroke:#333333;fill:#000000;stroke-opacity:1.000000;fill-opacity:0.000000"/>
<polyline points="241.94 , 310.35 241.94 , 305.35 " style="stroke-width:1;stroke:#333333;fill:#000000;stroke-opacity:1.000000;fill-opacity:0.000000"/>
<polyline points="289.43 , 310.35 289.43 , 305.35 " style="stroke-width:1;stroke:#333333;fill:#000000;stroke-opacity:1.000000;fill-opacity:0.000000"/>
<polyline points="336.93 , 310.35 336.93 , 305.35 " style="stroke-width:1;stroke:#333333;fill:#000000;stroke-opacity:1.000000;fill-opacity:0.000000"/>
<polyline points="384.43 , 310.35 384.43 , 305.35 " style="stroke-width:1;stroke:#333333;fill:#000000;stroke-opacity:1.000000;fill-opacity:0.000000"/>
<text transform="translate(138.14,326.35)"  style="font-size:16" >25</text>
<text transform="translate(181.24,326.35)"  style="font-size:16" >100</text>
<text transform="translate(228.74,326.35)"  style="font-size:16" >225</text>
<text transform="translate(276.23,326.35)"  style="font-size:16" >400</text>
<text transform="translate(323.73,326.35)"  style="font-size:16" >625</text>
<text transform="translate(371.23,326.35)"  style="font-size:16" >900</text>
<text transform="translate(150.07,351.35)"  style="font-size:20" >Number of interactions</text>
<text transform="translate(25.00,241.54) rotate(-90)"  style="font-size:20" >Times reported</text>
<rect x="232.15" y="71.12" width="145.20" height="43.90" style="stroke-width:1;stroke:#FFFFFF;fill:#FFFFFF;stroke-opacity:0.000000;fill-opacity:1.000000" />
<rect x="237.84" y="80.42" width="14.45" height="14.45" style="stroke-width:1;stroke:#FFFFFF;fill:#FFFFFF;stroke-opacity:0.000000;fill-opacity:1.000000" />
<line x1="239.29" y1="87.65" x2="250.85" y2="87.65" style="stroke-width:1;stroke:#E19E2E;fill:#000000;stroke-opacity:1.000000;fill-opacity:0.000000"/>
<rect x="237.84" y="94.88" width="14.45" height="14.45" style="stroke-width:1;stroke:#FFFFFF;fill:#FFFFFF;stroke-opacity:0.000000;fill-opacity:1.000000" />
<line x1="239.29" y1="102.10" x2="250.85" y2="102.10" style="stroke-width:1;stroke:#006400;fill:#000000;stroke-opacity:1.000000;fill-opacity:0.000000"/>
<text transform="translate(254.11,93.65)"  style="font-size:16" >Parasite to mouse</text>
<text transform="translate(254.11,108.10)"  style="font-size:16" >Mouse to parasite</text>
<text transform="translate(84.00,28.00)"  style="font-size:24" >Interactions per gene</text>
</svg>
