<?xml version="1.0" encoding="UTF-8"?>
<svg xmlns="http://www.w3.org/2000/svg" width="433.62" height="361.35" viewBox="0,0,433.62,361.35">
<desc>R SVG Plot!</desc>
<rect width="100%" height="100%" style="fill:#FFFFFF"/>
<polygon points="0.00 , 361.35 0.00 , 0.00 433.62 , 0.00 433.62 , 361.35 " style="stroke-width:1;stroke:#FFFFFF;fill:#FFFFFF;stroke-opacity:1.000000;fill-opacity:1.000000" />
<polygon points="46.70 , 330.55 46.70 , 22.00 353.20 , 22.00 353.20 , 330.55 " style="stroke-width:1;stroke:#FFFFFF;fill:#FFFFFF;stroke-opacity:0.000000;fill-opacity:1.000000" />
<polyline points="46.70 , 316.52 353.20 , 316.52 " style="stroke-width:0;stroke:#EBEBEB;fill:#000000;stroke-opacity:1.000000;fill-opacity:0.000000"/>
<polyline points="46.70 , 302.30 353.20 , 302.30 " style="stroke-width:0;stroke:#EBEBEB;fill:#000000;stroke-opacity:1.000000;fill-opacity:0.000000"/>
<polyline points="46.70 , 273.85 353.20 , 273.85 " style="stroke-width:0;stroke:#EBEBEB;fill:#000000;stroke-opacity:1.000000;fill-opacity:0.000000"/>
<polyline points="46.70 , 245.40 353.20 , 245.40 " style="stroke-width:0;stroke:#EBEBEB;fill:#000000;stroke-opacity:1.000000;fill-opacity:0.000000"/>
<polyline points="46.70 , 216.96 353.20 , 216.96 " style="stroke-width:0;stroke:#EBEBEB;fill:#000000;stroke-opacity:1.000000;fill-opacity:0.000000"/>
<polyline points="46.70 , 188.51 353.20 , 188.51 " style="stroke-width:0;stroke:#EBEBEB;fill:#000000;stroke-opacity:1.000000;fill-opacity:0.000000"/>
<polyline points="46.70 , 160.06 353.20 , 160.06 " style="stroke-width:0;stroke:#EBEBEB;fill:#000000;stroke-opacity:1.000000;fill-opacity:0.000000"/>
<polyline points="46.70 , 131.61 353.20 , 131.61 " style="stroke-width:0;stroke:#EBEBEB;fill:#000000;stroke-opacity:1.000000;fill-opacity:0.000000"/>
<polyline points="46.70 , 103.16 353.20 , 103.16 " style="stroke-width:0;stroke:#EBEBEB;fill:#000000;stroke-opacity:1.000000;fill-opacity:0.000000"/>
<polyline points="46.70 , 74.72 353.20 , 74.72 " style="stroke-width:0;stroke:#EBEBEB;fill:#000000;stroke-opacity:1.000000;fill-opacity:0.000000"/>
<polyline points="46.70 , 46.27 353.20 , 46.27 " style="stroke-width:0;stroke:#EBEBEB;fill:#000000;stroke-opacity:1.000000;fill-opacity:0.000000"/>
<polyline points="60.63 , 330.55 60.63 , 22.00 " style="stroke-width:0;stroke:#EBEBEB;fill:#000000;stroke-opacity:1.000000;fill-opacity:0.000000"/>
<polyline points="82.07 , 330.55 82.07 , 22.00 " style="stroke-width:0;stroke:#EBEBEB;fill:#000000;stroke-opacity:1.000000;fill-opacity:0.000000"/>
<polyline points="124.93 , 330.55 124.93 , 22.00 " style="stroke-width:0;stroke:#EBEBEB;fill:#000000;stroke-opacity:1.000000;fill-opacity:0.000000"/>
<polyline points="167.80 , 330.55 167.80 , 22.00 " style="stroke-width:0;stroke:#EBEBEB;fill:#000000;stroke-opacity:1.000000;fill-opacity:0.000000"/>
<polyline points="210.67 , 330.55 210.67 , 22.00 " style="stroke-width:0;stroke:#EBEBEB;fill:#000000;stroke-opacity:1.000000;fill-opacity:0.000000"/>
<polyline points="253.53 , 330.55 253.53 , 22.00 " style="stroke-width:0;stroke:#EBEBEB;fill:#000000;stroke-opacity:1.000000;fill-opacity:0.000000"/>
<polyline points="296.40 , 330.55 296.40 , 22.00 " style="stroke-width:0;stroke:#EBEBEB;fill:#000000;stroke-opacity:1.000000;fill-opacity:0.000000"/>
<polyline points="339.27 , 330.55 339.27 , 22.00 " style="stroke-width:0;stroke:#EBEBEB;fill:#000000;stroke-opacity:1.000000;fill-opacity:0.000000"/>
<polyline points="46.70 , 288.08 353.20 , 288.08 " style="stroke-width:1;stroke:#EBEBEB;fill:#000000;stroke-opacity:1.000000;fill-opacity:0.000000"/>
<polyline points="46.70 , 259.63 353.20 , 259.63 " style="stroke-width:1;stroke:#EBEBEB;fill:#000000;stroke-opacity:1.000000;fill-opacity:0.000000"/>
<polyline points="46.70 , 231.18 353.20 , 231.18 " style="stroke-width:1;stroke:#EBEBEB;fill:#000000;stroke-opacity:1.000000;fill-opacity:0.000000"/>
<polyline points="46.70 , 202.73 353.20 , 202.73 " style="stroke-width:1;stroke:#EBEBEB;fill:#000000;stroke-opacity:1.000000;fill-opacity:0.000000"/>
<polyline points="46.70 , 174.28 353.20 , 174.28 " style="stroke-width:1;stroke:#EBEBEB;fill:#000000;stroke-opacity:1.000000;fill-opacity:0.000000"/>
<polyline points="46.70 , 145.84 353.20 , 145.84 " style="stroke-width:1;stroke:#EBEBEB;fill:#000000;stroke-opacity:1.000000;fill-opacity:0.000000"/>
<polyline points="46.70 , 117.39 353.20 , 117.39 " style="stroke-width:1;stroke:#EBEBEB;fill:#000000;stroke-opacity:1.000000;fill-opacity:0.000000"/>
<polyline points="46.70 , 88.94 353.20 , 88.94 " style="stroke-width:1;stroke:#EBEBEB;fill:#000000;stroke-opacity:1.000000;fill-opacity:0.000000"/>
<polyline points="46.70 , 60.49 353.20 , 60.49 " style="stroke-width:1;stroke:#EBEBEB;fill:#000000;stroke-opacity:1.000000;fill-opacity:0.000000"/>
<polyline points="46.70 , 32.04 353.20 , 32.04 " style="stroke-width:1;stroke:#EBEBEB;fill:#000000;stroke-opacity:1.000000;fill-opacity:0.000000"/>
<polyline points="103.50 , 330.55 103.50 , 22.00 " style="stroke-width:1;stroke:#EBEBEB;fill:#000000;stroke-opacity:1.000000;fill-opacity:0.000000"/>
<polyline points="146.37 , 330.55 146.37 , 22.00 " style="stroke-width:1;stroke:#EBEBEB;fill:#000000;stroke-opacity:1.000000;fill-opacity:0.000000"/>
<polyline points="189.23 , 330.55 189.23 , 22.00 " style="stroke-width:1;stroke:#EBEBEB;fill:#000000;stroke-opacity:1.000000;fill-opacity:0.000000"/>
<polyline points="232.10 , 330.55 232.10 , 22.00 " style="stroke-width:1;stroke:#EBEBEB;fill:#000000;stroke-opacity:1.000000;fill-opacity:0.000000"/>
<polyline points="274.97 , 330.55 274.97 , 22.00 " style="stroke-width:1;stroke:#EBEBEB;fill:#000000;stroke-opacity:1.000000;fill-opacity:0.000000"/>
<polyline points="317.83 , 330.55 317.83 , 22.00 " style="stroke-width:1;stroke:#EBEBEB;fill:#000000;stroke-opacity:1.000000;fill-opacity:0.000000"/>
<polyline points="60.63 , 122.43 69.21 , 239.87 77.78 , 265.95 86.35 , 284.85 94.93 , 294.12 103.50 , 300.94 112.07 , 306.67 120.65 , 310.84 129.22 , 309.00 137.79 , 308.48 146.37 , 311.60 154.94 , 312.50 163.51 , 313.68 172.09 , 316.52 180.66 , 312.50 189.23 , 309.56 197.81 , 316.52 206.38 , 311.60 214.95 , 309.56 223.53 , 316.52 232.10 , 316.52 240.67 , 316.52 249.25 , 316.52 257.82 , 316.52 266.39 , 311.60 274.97 , 313.68 283.54 , 316.52 292.11 , 316.52 300.69 , 316.52 309.26 , 316.52 317.83 , 316.52 326.41 , 309.00 334.98 , 316.52 " style="stroke-width:1;stroke:#E19E2E;fill:#000000;stroke-opacity:1.000000;fill-opacity:0.000000"/>
<polyline points="60.63 , 36.03 69.21 , 203.45 77.78 , 232.52 86.35 , 250.72 94.93 , 251.09 103.50 , 293.77 112.07 , 303.49 120.65 , 307.53 129.22 , 310.84 137.79 , 311.60 146.37 , 311.60 154.94 , 316.52 163.51 , 316.52 172.09 , 316.52 180.66 , 316.52 189.23 , 316.52 197.81 , 316.52 206.38 , 316.52 214.95 , 316.52 223.53 , 316.52 232.10 , 316.52 240.67 , 316.52 249.25 , 316.52 257.82 , 316.52 266.39 , 316.52 274.97 , 316.52 283.54 , 316.52 292.11 , 316.52 300.69 , 316.52 309.26 , 316.52 317.83 , 316.52 326.41 , 316.52 334.98 , 316.52 " style="stroke-width:1;stroke:#006400;fill:#000000;stroke-opacity:1.000000;fill-opacity:0.000000"/>
<polyline points="353.20 , 22.00 353.20 , 330.55 46.70 , 330.55 " style="stroke-width:1;stroke:#333333;fill:#000000;stroke-opacity:1.000000;fill-opacity:0.000000"/>
<text transform="translate(28.25,291.38)"  style="font-size:9" >100</text>
<text transform="translate(26.90,262.93)"  style="font-size:9" >400</text>
<text transform="translate(26.90,234.48)"  style="font-size:9" >900</text>
<text transform="translate(21.95,206.03)"  style="font-size:9" >1600</text>
<text transform="translate(21.95,177.58)"  style="font-size:9" >2500</text>
<text transform="translate(21.95,149.14)"  style="font-size:9" >3600</text>
<text transform="translate(21.95,120.69)"  style="font-size:9" >4900</text>
<text transform="translate(21.95,92.24)"  style="font-size:9" >6400</text>
<text transform="translate(21.95,63.79)"  style="font-size:9" >8100</text>
<text transform="translate(17.00,35.34)"  style="font-size:9" >10000</text>
<polyline points="43.95 , 288.08 46.70 , 288.08 " style="stroke-width:1;stroke:#333333;fill:#000000;stroke-opacity:1.000000;fill-opacity:0.000000"/>
<polyline points="43.95 , 259.63 46.70 , 259.63 " style="stroke-width:1;stroke:#333333;fill:#000000;stroke-opacity:1.000000;fill-opacity:0.000000"/>
<polyline points="43.95 , 231.18 46.70 , 231.18 " style="stroke-width:1;stroke:#333333;fill:#000000;stroke-opacity:1.000000;fill-opacity:0.000000"/>
<polyline points="43.95 , 202.73 46.70 , 202.73 " style="stroke-width:1;stroke:#333333;fill:#000000;stroke-opacity:1.000000;fill-opacity:0.000000"/>
<polyline points="43.95 , 174.28 46.70 , 174.28 " style="stroke-width:1;stroke:#333333;fill:#000000;stroke-opacity:1.000000;fill-opacity:0.000000"/>
<polyline points="43.95 , 145.84 46.70 , 145.84 " style="stroke-width:1;stroke:#333333;fill:#000000;stroke-opacity:1.000000;fill-opacity:0.000000"/>
<polyline points="43.95 , 117.39 46.70 , 117.39 " style="stroke-width:1;stroke:#333333;fill:#000000;stroke-opacity:1.000000;fill-opacity:0.000000"/>
<polyline points="43.95 , 88.94 46.70 , 88.94 " style="stroke-width:1;stroke:#333333;fill:#000000;stroke-opacity:1.000000;fill-opacity:0.000000"/>
<polyline points="43.95 , 60.49 46.70 , 60.49 " style="stroke-width:1;stroke:#333333;fill:#000000;stroke-opacity:1.000000;fill-opacity:0.000000"/>
<polyline points="43.95 , 32.04 46.70 , 32.04 " style="stroke-width:1;stroke:#333333;fill:#000000;stroke-opacity:1.000000;fill-opacity:0.000000"/>
<polyline points="103.50 , 333.30 103.50 , 330.55 " style="stroke-width:1;stroke:#333333;fill:#000000;stroke-opacity:1.000000;fill-opacity:0.000000"/>
<polyline points="146.37 , 333.30 146.37 , 330.55 " style="stroke-width:1;stroke:#333333;fill:#000000;stroke-opacity:1.000000;fill-opacity:0.000000"/>
<polyline points="189.23 , 333.30 189.23 , 330.55 " style="stroke-width:1;stroke:#333333;fill:#000000;stroke-opacity:1.000000;fill-opacity:0.000000"/>
<polyline points="232.10 , 333.30 232.10 , 330.55 " style="stroke-width:1;stroke:#333333;fill:#000000;stroke-opacity:1.000000;fill-opacity:0.000000"/>
<polyline points="274.97 , 333.30 274.97 , 330.55 " style="stroke-width:1;stroke:#333333;fill:#000000;stroke-opacity:1.000000;fill-opacity:0.000000"/>
<polyline points="317.83 , 333.30 317.83 , 330.55 " style="stroke-width:1;stroke:#333333;fill:#000000;stroke-opacity:1.000000;fill-opacity:0.000000"/>
<text transform="translate(98.55,342.10)"  style="font-size:9" >25</text>
<text transform="translate(138.94,342.10)"  style="font-size:9" >100</text>
<text transform="translate(181.81,342.10)"  style="font-size:9" >225</text>
<text transform="translate(224.67,342.10)"  style="font-size:9" >400</text>
<text transform="translate(267.54,342.10)"  style="font-size:9" >625</text>
<text transform="translate(310.41,342.10)"  style="font-size:9" >900</text>
<text transform="translate(142.89,355.85)"  style="font-size:11" >Number of interactions</text>
<text transform="translate(13.75,214.15) rotate(-90)"  style="font-size:11" >Times reported</text>
<rect x="364.58" y="150.20" width="63.54" height="52.15" style="stroke-width:1;stroke:#FFFFFF;fill:#FFFFFF;stroke-opacity:0.000000;fill-opacity:1.000000" />
<text transform="translate(370.27,164.14)"  style="font-size:11" >from.to</text>
<rect x="370.27" y="167.75" width="14.45" height="14.45" style="stroke-width:1;stroke:#FFFFFF;fill:#FFFFFF;stroke-opacity:0.000000;fill-opacity:1.000000" />
<line x1="371.71" y1="174.98" x2="383.28" y2="174.98" style="stroke-width:1;stroke:#E19E2E;fill:#000000;stroke-opacity:1.000000;fill-opacity:0.000000"/>
<rect x="370.27" y="182.21" width="14.45" height="14.45" style="stroke-width:1;stroke:#FFFFFF;fill:#FFFFFF;stroke-opacity:0.000000;fill-opacity:1.000000" />
<line x1="371.71" y1="189.43" x2="383.28" y2="189.43" style="stroke-width:1;stroke:#006400;fill:#000000;stroke-opacity:1.000000;fill-opacity:0.000000"/>
<text transform="translate(386.53,178.28)"  style="font-size:9" >Ef.to.Mm</text>
<text transform="translate(386.53,192.73)"  style="font-size:9" >Mm.to.Ef</text>
<text transform="translate(46.70,15.40)"  style="font-size:13" >Interactions per gene</text>
</svg>
