<?xml version="1.0" encoding="UTF-8"?>
<svg xmlns="http://www.w3.org/2000/svg" width="433.62" height="361.35" viewBox="0,0,433.62,361.35">
<desc>R SVG Plot!</desc>
<rect width="100%" height="100%" style="fill:#FFFFFF"/>
<polygon points="0.00 , 361.35 0.00 , 0.00 433.62 , 0.00 433.62 , 361.35 " style="stroke-width:1;stroke:#FFFFFF;fill:#FFFFFF;stroke-opacity:1.000000;fill-opacity:1.000000" />
<polygon points="51.20 , 330.55 51.20 , 22.00 346.28 , 22.00 346.28 , 330.55 " style="stroke-width:1;stroke:#FFFFFF;fill:#FFFFFF;stroke-opacity:0.000000;fill-opacity:1.000000" />
<polyline points="51.20 , 284.61 346.28 , 284.61 " style="stroke-width:0;stroke:#EBEBEB;fill:#000000;stroke-opacity:1.000000;fill-opacity:0.000000"/>
<polyline points="51.20 , 220.79 346.28 , 220.79 " style="stroke-width:0;stroke:#EBEBEB;fill:#000000;stroke-opacity:1.000000;fill-opacity:0.000000"/>
<polyline points="51.20 , 156.97 346.28 , 156.97 " style="stroke-width:0;stroke:#EBEBEB;fill:#000000;stroke-opacity:1.000000;fill-opacity:0.000000"/>
<polyline points="51.20 , 93.15 346.28 , 93.15 " style="stroke-width:0;stroke:#EBEBEB;fill:#000000;stroke-opacity:1.000000;fill-opacity:0.000000"/>
<polyline points="51.20 , 29.33 346.28 , 29.33 " style="stroke-width:0;stroke:#EBEBEB;fill:#000000;stroke-opacity:1.000000;fill-opacity:0.000000"/>
<polyline points="98.15 , 330.55 98.15 , 22.00 " style="stroke-width:0;stroke:#EBEBEB;fill:#000000;stroke-opacity:1.000000;fill-opacity:0.000000"/>
<polyline points="165.21 , 330.55 165.21 , 22.00 " style="stroke-width:0;stroke:#EBEBEB;fill:#000000;stroke-opacity:1.000000;fill-opacity:0.000000"/>
<polyline points="232.27 , 330.55 232.27 , 22.00 " style="stroke-width:0;stroke:#EBEBEB;fill:#000000;stroke-opacity:1.000000;fill-opacity:0.000000"/>
<polyline points="299.34 , 330.55 299.34 , 22.00 " style="stroke-width:0;stroke:#EBEBEB;fill:#000000;stroke-opacity:1.000000;fill-opacity:0.000000"/>
<polyline points="51.20 , 316.52 346.28 , 316.52 " style="stroke-width:1;stroke:#EBEBEB;fill:#000000;stroke-opacity:1.000000;fill-opacity:0.000000"/>
<polyline points="51.20 , 252.70 346.28 , 252.70 " style="stroke-width:1;stroke:#EBEBEB;fill:#000000;stroke-opacity:1.000000;fill-opacity:0.000000"/>
<polyline points="51.20 , 188.88 346.28 , 188.88 " style="stroke-width:1;stroke:#EBEBEB;fill:#000000;stroke-opacity:1.000000;fill-opacity:0.000000"/>
<polyline points="51.20 , 125.06 346.28 , 125.06 " style="stroke-width:1;stroke:#EBEBEB;fill:#000000;stroke-opacity:1.000000;fill-opacity:0.000000"/>
<polyline points="51.20 , 61.24 346.28 , 61.24 " style="stroke-width:1;stroke:#EBEBEB;fill:#000000;stroke-opacity:1.000000;fill-opacity:0.000000"/>
<polyline points="64.61 , 330.55 64.61 , 22.00 " style="stroke-width:1;stroke:#EBEBEB;fill:#000000;stroke-opacity:1.000000;fill-opacity:0.000000"/>
<polyline points="131.68 , 330.55 131.68 , 22.00 " style="stroke-width:1;stroke:#EBEBEB;fill:#000000;stroke-opacity:1.000000;fill-opacity:0.000000"/>
<polyline points="198.74 , 330.55 198.74 , 22.00 " style="stroke-width:1;stroke:#EBEBEB;fill:#000000;stroke-opacity:1.000000;fill-opacity:0.000000"/>
<polyline points="265.81 , 330.55 265.81 , 22.00 " style="stroke-width:1;stroke:#EBEBEB;fill:#000000;stroke-opacity:1.000000;fill-opacity:0.000000"/>
<polyline points="332.87 , 330.55 332.87 , 22.00 " style="stroke-width:1;stroke:#EBEBEB;fill:#000000;stroke-opacity:1.000000;fill-opacity:0.000000"/>
<polyline points="64.61 , 98.79 65.14 , 90.53 65.66 , 82.80 66.19 , 75.58 66.71 , 68.91 67.24 , 62.82 67.76 , 57.34 68.29 , 52.66 68.81 , 48.61 69.34 , 45.20 69.86 , 42.41 70.39 , 40.24 70.91 , 38.74 71.44 , 37.89 71.96 , 37.57 72.49 , 37.74 73.01 , 38.38 73.54 , 39.44 74.06 , 40.98 74.59 , 42.85 75.11 , 45.00 75.64 , 47.40 76.16 , 50.01 76.69 , 52.81 77.21 , 55.75 77.74 , 58.79 78.26 , 61.89 78.79 , 65.03 79.31 , 68.19 79.84 , 71.34 80.36 , 74.46 80.89 , 77.54 81.41 , 80.57 81.94 , 83.54 82.46 , 86.43 82.99 , 89.24 83.51 , 91.98 84.04 , 94.64 84.56 , 97.21 85.09 , 99.72 85.61 , 102.13 86.14 , 104.46 86.66 , 106.72 87.19 , 108.92 87.71 , 111.05 88.24 , 113.11 88.76 , 115.10 89.29 , 117.03 89.81 , 118.92 90.34 , 120.74 90.86 , 122.52 91.39 , 124.25 91.91 , 125.93 92.44 , 127.56 92.96 , 129.15 93.49 , 130.70 94.01 , 132.22 94.54 , 133.68 95.06 , 135.11 95.59 , 136.50 96.11 , 137.86 96.64 , 139.19 97.16 , 140.47 97.69 , 141.73 98.21 , 142.95 98.74 , 144.14 99.26 , 145.30 99.79 , 146.43 100.31 , 147.52 100.84 , 148.59 101.36 , 149.63 101.89 , 150.64 102.41 , 151.63 102.94 , 152.59 103.46 , 153.53 103.99 , 154.44 104.51 , 155.33 105.04 , 156.20 105.56 , 157.05 106.09 , 157.87 106.61 , 158.68 107.14 , 159.47 107.66 , 160.25 108.19 , 161.01 108.71 , 161.75 109.24 , 162.48 109.76 , 163.20 110.29 , 163.91 110.81 , 164.61 111.34 , 165.30 111.86 , 165.98 112.39 , 166.65 112.91 , 167.32 113.44 , 167.98 113.96 , 168.63 114.48 , 169.28 115.01 , 169.93 115.53 , 170.57 116.06 , 171.20 116.58 , 171.83 117.11 , 172.46 117.63 , 173.08 118.16 , 173.69 118.68 , 174.30 119.21 , 174.90 119.73 , 175.50 120.26 , 176.08 120.78 , 176.66 121.31 , 177.23 121.83 , 177.79 122.36 , 178.34 122.88 , 178.88 123.41 , 179.41 123.93 , 179.93 124.46 , 180.45 124.98 , 180.95 125.51 , 181.44 126.03 , 181.93 126.56 , 182.41 127.08 , 182.88 127.61 , 183.35 128.13 , 183.81 128.66 , 184.27 129.18 , 184.72 129.71 , 185.17 130.23 , 185.62 130.76 , 186.07 131.28 , 186.52 131.81 , 186.97 132.33 , 187.42 132.86 , 187.87 133.38 , 188.32 133.91 , 188.77 134.43 , 189.22 134.96 , 189.67 135.48 , 190.12 136.01 , 190.56 136.53 , 191.01 137.06 , 191.45 137.58 , 191.88 138.11 , 192.31 138.63 , 192.73 139.16 , 193.14 139.68 , 193.55 140.21 , 193.94 140.73 , 194.32 141.26 , 194.69 141.78 , 195.05 142.31 , 195.39 142.83 , 195.73 143.36 , 196.05 143.88 , 196.35 144.41 , 196.65 144.93 , 196.93 145.46 , 197.20 145.98 , 197.46 146.51 , 197.71 147.03 , 197.95 147.56 , 198.18 148.08 , 198.40 148.61 , 198.62 149.13 , 198.84 149.66 , 199.05 150.18 , 199.26 150.71 , 199.46 151.23 , 199.67 151.76 , 199.88 152.28 , 200.08 152.81 , 200.29 153.33 , 200.50 153.86 , 200.72 154.38 , 200.93 154.91 , 201.15 155.43 , 201.38 155.96 , 201.60 156.48 , 201.83 157.01 , 202.07 157.53 , 202.31 158.06 , 202.55 158.58 , 202.80 159.11 , 203.05 159.63 , 203.30 160.16 , 203.55 160.68 , 203.81 161.21 , 204.07 161.73 , 204.34 162.26 , 204.60 162.78 , 204.87 163.31 , 205.13 163.83 , 205.40 164.36 , 205.66 164.88 , 205.93 165.41 , 206.19 165.93 , 206.45 166.46 , 206.70 166.98 , 206.95 167.51 , 207.20 168.03 , 207.44 168.56 , 207.67 169.08 , 207.89 169.61 , 208.11 170.13 , 208.31 170.66 , 208.51 171.18 , 208.69 171.71 , 208.86 172.23 , 209.02 172.76 , 209.17 173.28 , 209.30 173.81 , 209.42 174.33 , 209.53 174.86 , 209.63 175.38 , 209.72 175.91 , 209.80 176.43 , 209.87 176.96 , 209.93 177.48 , 209.99 178.01 , 210.04 178.53 , 210.08 179.06 , 210.12 179.58 , 210.16 180.11 , 210.19 180.63 , 210.23 181.16 , 210.26 181.68 , 210.30 182.21 , 210.34 182.73 , 210.39 183.26 , 210.44 183.78 , 210.49 184.31 , 210.55 184.83 , 210.62 185.36 , 210.69 185.88 , 210.77 186.41 , 210.85 186.93 , 210.94 187.46 , 211.04 187.98 , 211.14 188.51 , 211.25 189.03 , 211.37 189.56 , 211.49 190.08 , 211.62 190.61 , 211.75 191.13 , 211.88 191.66 , 212.02 192.18 , 212.16 192.71 , 212.31 193.23 , 212.45 193.76 , 212.60 194.28 , 212.75 194.80 , 212.90 195.33 , 213.05 195.85 , 213.20 196.38 , 213.35 196.90 , 213.50 197.43 , 213.64 197.95 , 213.79 198.48 , 213.94 199.00 , 214.08 199.53 , 214.23 200.05 , 214.37 200.58 , 214.51 201.10 , 214.65 201.63 , 214.79 202.15 , 214.93 202.68 , 215.07 203.20 , 215.21 203.73 , 215.34 204.25 , 215.48 204.78 , 215.62 205.30 , 215.75 205.83 , 215.89 206.35 , 216.03 206.88 , 216.17 207.40 , 216.30 207.93 , 216.44 208.45 , 216.58 208.98 , 216.72 209.50 , 216.86 210.03 , 217.00 210.55 , 217.14 211.08 , 217.29 211.60 , 217.43 212.13 , 217.57 212.65 , 217.70 213.18 , 217.84 213.70 , 217.97 214.23 , 218.11 214.75 , 218.23 215.28 , 218.36 215.80 , 218.48 216.33 , 218.59 216.85 , 218.70 217.38 , 218.80 217.90 , 218.90 218.43 , 218.98 218.95 , 219.06 219.48 , 219.13 220.00 , 219.20 220.53 , 219.25 221.05 , 219.29 221.58 , 219.33 222.10 , 219.35 222.63 , 219.37 223.15 , 219.38 223.68 , 219.38 224.20 , 219.37 224.73 , 219.36 225.25 , 219.34 225.78 , 219.31 226.30 , 219.28 226.83 , 219.25 227.35 , 219.22 227.88 , 219.18 228.40 , 219.14 228.93 , 219.11 229.45 , 219.07 229.98 , 219.04 230.50 , 219.02 231.03 , 218.99 231.55 , 218.98 232.08 , 218.97 232.60 , 218.97 233.13 , 218.98 233.65 , 218.99 234.18 , 219.02 234.70 , 219.05 235.23 , 219.09 235.75 , 219.15 236.28 , 219.21 236.80 , 219.29 237.33 , 219.38 237.85 , 219.47 238.38 , 219.58 238.90 , 219.69 239.43 , 219.82 239.95 , 219.95 240.48 , 220.10 241.00 , 220.25 241.53 , 220.40 242.05 , 220.57 242.58 , 220.73 243.10 , 220.91 243.63 , 221.08 244.15 , 221.26 244.68 , 221.44 245.20 , 221.62 245.73 , 221.80 246.25 , 221.98 246.78 , 222.16 247.30 , 222.33 247.83 , 222.51 248.35 , 222.68 248.88 , 222.84 249.40 , 223.00 249.93 , 223.15 250.45 , 223.30 250.98 , 223.45 251.50 , 223.58 252.03 , 223.72 252.55 , 223.84 253.08 , 223.96 253.60 , 224.08 254.13 , 224.18 254.65 , 224.29 255.18 , 224.38 255.70 , 224.47 256.23 , 224.56 256.75 , 224.64 257.28 , 224.71 257.80 , 224.78 258.33 , 224.84 258.85 , 224.90 259.38 , 224.96 259.90 , 225.00 260.43 , 225.04 260.95 , 225.08 261.48 , 225.11 262.00 , 225.14 262.53 , 225.16 263.05 , 225.18 263.58 , 225.20 264.10 , 225.21 264.63 , 225.22 265.15 , 225.22 265.68 , 225.23 266.20 , 225.23 266.73 , 225.23 267.25 , 225.23 267.78 , 225.23 268.30 , 225.22 268.83 , 225.22 269.35 , 225.22 269.88 , 225.22 270.40 , 225.21 270.93 , 225.21 271.45 , 225.21 271.98 , 225.21 272.50 , 225.21 273.03 , 225.21 273.55 , 225.20 274.08 , 225.20 274.60 , 225.20 275.13 , 225.20 275.65 , 225.19 276.17 , 225.19 276.70 , 225.18 277.22 , 225.17 277.75 , 225.16 278.27 , 225.15 278.80 , 225.14 279.32 , 225.13 279.85 , 225.11 280.37 , 225.09 280.90 , 225.08 281.42 , 225.06 281.95 , 225.04 282.47 , 225.02 283.00 , 225.00 283.52 , 224.98 284.05 , 224.96 284.57 , 224.93 285.10 , 224.91 285.62 , 224.89 286.15 , 224.87 286.67 , 224.85 287.20 , 224.83 287.72 , 224.81 288.25 , 224.80 288.77 , 224.78 289.30 , 224.76 289.82 , 224.75 290.35 , 224.74 290.87 , 224.73 291.40 , 224.72 291.92 , 224.71 292.45 , 224.71 292.97 , 224.71 293.50 , 224.72 294.02 , 224.73 294.55 , 224.74 295.07 , 224.76 295.60 , 224.78 296.12 , 224.81 296.65 , 224.84 297.17 , 224.88 297.70 , 224.93 298.22 , 224.98 298.75 , 225.04 299.27 , 225.10 299.80 , 225.17 300.32 , 225.25 300.85 , 225.33 301.37 , 225.41 301.90 , 225.50 302.42 , 225.59 302.95 , 225.69 303.47 , 225.78 304.00 , 225.88 304.52 , 225.98 305.05 , 226.08 305.57 , 226.18 306.10 , 226.27 306.62 , 226.37 307.15 , 226.46 307.67 , 226.55 308.20 , 226.63 308.72 , 226.71 309.25 , 226.79 309.77 , 226.87 310.30 , 226.94 310.82 , 227.02 311.35 , 227.09 311.87 , 227.16 312.40 , 227.24 312.92 , 227.32 313.45 , 227.41 313.97 , 227.51 314.50 , 227.61 315.02 , 227.73 315.55 , 227.88 316.07 , 228.04 316.60 , 228.23 317.12 , 228.45 317.65 , 228.71 318.17 , 229.00 318.70 , 229.35 319.22 , 229.75 319.75 , 230.21 320.27 , 230.72 320.80 , 231.31 321.32 , 231.97 321.85 , 232.73 322.37 , 233.57 322.90 , 234.50 323.42 , 235.52 323.95 , 236.64 324.47 , 237.88 325.00 , 239.23 325.52 , 240.69 326.05 , 242.25 326.57 , 243.92 327.10 , 245.71 327.62 , 247.62 328.15 , 249.62 328.67 , 251.71 329.20 , 253.89 329.72 , 256.15 330.25 , 258.51 330.77 , 260.92 331.30 , 263.38 331.82 , 265.88 332.35 , 268.42 332.87 , 270.97 332.87 , 316.52 332.35 , 316.52 331.82 , 316.52 331.30 , 316.52 330.77 , 316.52 330.25 , 316.52 329.72 , 316.52 329.20 , 316.52 328.67 , 316.52 328.15 , 316.52 327.62 , 316.52 327.10 , 316.52 326.57 , 316.52 326.05 , 316.52 325.52 , 316.52 325.00 , 316.52 324.47 , 316.52 323.95 , 316.52 323.42 , 316.52 322.90 , 316.52 322.37 , 316.52 321.85 , 316.52 321.32 , 316.52 320.80 , 316.52 320.27 , 316.52 319.75 , 316.52 319.22 , 316.52 318.70 , 316.52 318.17 , 316.52 317.65 , 316.52 317.12 , 316.52 316.60 , 316.52 316.07 , 316.52 315.55 , 316.52 315.02 , 316.52 314.50 , 316.52 313.97 , 316.52 313.45 , 316.52 312.92 , 316.52 312.40 , 316.52 311.87 , 316.52 311.35 , 316.52 310.82 , 316.52 310.30 , 316.52 309.77 , 316.52 309.25 , 316.52 308.72 , 316.52 308.20 , 316.52 307.67 , 316.52 307.15 , 316.52 306.62 , 316.52 306.10 , 316.52 305.57 , 316.52 305.05 , 316.52 304.52 , 316.52 304.00 , 316.52 303.47 , 316.52 302.95 , 316.52 302.42 , 316.52 301.90 , 316.52 301.37 , 316.52 300.85 , 316.52 300.32 , 316.52 299.80 , 316.52 299.27 , 316.52 298.75 , 316.52 298.22 , 316.52 297.70 , 316.52 297.17 , 316.52 296.65 , 316.52 296.12 , 316.52 295.60 , 316.52 295.07 , 316.52 294.55 , 316.52 294.02 , 316.52 293.50 , 316.52 292.97 , 316.52 292.45 , 316.52 291.92 , 316.52 291.40 , 316.52 290.87 , 316.52 290.35 , 316.52 289.82 , 316.52 289.30 , 316.52 288.77 , 316.52 288.25 , 316.52 287.72 , 316.52 287.20 , 316.52 286.67 , 316.52 286.15 , 316.52 285.62 , 316.52 285.10 , 316.52 284.57 , 316.52 284.05 , 316.52 283.52 , 316.52 283.00 , 316.52 282.47 , 316.52 281.95 , 316.52 281.42 , 316.52 280.90 , 316.52 280.37 , 316.52 279.85 , 316.52 279.32 , 316.52 278.80 , 316.52 278.27 , 316.52 277.75 , 316.52 277.22 , 316.52 276.70 , 316.52 276.17 , 316.52 275.65 , 316.52 275.13 , 316.52 274.60 , 316.52 274.08 , 316.52 273.55 , 316.52 273.03 , 316.52 272.50 , 316.52 271.98 , 316.52 271.45 , 316.52 270.93 , 316.52 270.40 , 316.52 269.88 , 316.52 269.35 , 316.52 268.83 , 316.52 268.30 , 316.52 267.78 , 316.52 267.25 , 316.52 266.73 , 316.52 266.20 , 316.52 265.68 , 316.52 265.15 , 316.52 264.63 , 316.52 264.10 , 316.52 263.58 , 316.52 263.05 , 316.52 262.53 , 316.52 262.00 , 316.52 261.48 , 316.52 260.95 , 316.52 260.43 , 316.52 259.90 , 316.52 259.38 , 316.52 258.85 , 316.52 258.33 , 316.52 257.80 , 316.52 257.28 , 316.52 256.75 , 316.52 256.23 , 316.52 255.70 , 316.52 255.18 , 316.52 254.65 , 316.52 254.13 , 316.52 253.60 , 316.52 253.08 , 316.52 252.55 , 316.52 252.03 , 316.52 251.50 , 316.52 250.98 , 316.52 250.45 , 316.52 249.93 , 316.52 249.40 , 316.52 248.88 , 316.52 248.35 , 316.52 247.83 , 316.52 247.30 , 316.52 246.78 , 316.52 246.25 , 316.52 245.73 , 316.52 245.20 , 316.52 244.68 , 316.52 244.15 , 316.52 243.63 , 316.52 243.10 , 316.52 242.58 , 316.52 242.05 , 316.52 241.53 , 316.52 241.00 , 316.52 240.48 , 316.52 239.95 , 316.52 239.43 , 316.52 238.90 , 316.52 238.38 , 316.52 237.85 , 316.52 237.33 , 316.52 236.80 , 316.52 236.28 , 316.52 235.75 , 316.52 235.23 , 316.52 234.70 , 316.52 234.18 , 316.52 233.65 , 316.52 233.13 , 316.52 232.60 , 316.52 232.08 , 316.52 231.55 , 316.52 231.03 , 316.52 230.50 , 316.52 229.98 , 316.52 229.45 , 316.52 228.93 , 316.52 228.40 , 316.52 227.88 , 316.52 227.35 , 316.52 226.83 , 316.52 226.30 , 316.52 225.78 , 316.52 225.25 , 316.52 224.73 , 316.52 224.20 , 316.52 223.68 , 316.52 223.15 , 316.52 222.63 , 316.52 222.10 , 316.52 221.58 , 316.52 221.05 , 316.52 220.53 , 316.52 220.00 , 316.52 219.48 , 316.52 218.95 , 316.52 218.43 , 316.52 217.90 , 316.52 217.38 , 316.52 216.85 , 316.52 216.33 , 316.52 215.80 , 316.52 215.28 , 316.52 214.75 , 316.52 214.23 , 316.52 213.70 , 316.52 213.18 , 316.52 212.65 , 316.52 212.13 , 316.52 211.60 , 316.52 211.08 , 316.52 210.55 , 316.52 210.03 , 316.52 209.50 , 316.52 208.98 , 316.52 208.45 , 316.52 207.93 , 316.52 207.40 , 316.52 206.88 , 316.52 206.35 , 316.52 205.83 , 316.52 205.30 , 316.52 204.78 , 316.52 204.25 , 316.52 203.73 , 316.52 203.20 , 316.52 202.68 , 316.52 202.15 , 316.52 201.63 , 316.52 201.10 , 316.52 200.58 , 316.52 200.05 , 316.52 199.53 , 316.52 199.00 , 316.52 198.48 , 316.52 197.95 , 316.52 197.43 , 316.52 196.90 , 316.52 196.38 , 316.52 195.85 , 316.52 195.33 , 316.52 194.80 , 316.52 194.28 , 316.52 193.76 , 316.52 193.23 , 316.52 192.71 , 316.52 192.18 , 316.52 191.66 , 316.52 191.13 , 316.52 190.61 , 316.52 190.08 , 316.52 189.56 , 316.52 189.03 , 316.52 188.51 , 316.52 187.98 , 316.52 187.46 , 316.52 186.93 , 316.52 186.41 , 316.52 185.88 , 316.52 185.36 , 316.52 184.83 , 316.52 184.31 , 316.52 183.78 , 316.52 183.26 , 316.52 182.73 , 316.52 182.21 , 316.52 181.68 , 316.52 181.16 , 316.52 180.63 , 316.52 180.11 , 316.52 179.58 , 316.52 179.06 , 316.52 178.53 , 316.52 178.01 , 316.52 177.48 , 316.52 176.96 , 316.52 176.43 , 316.52 175.91 , 316.52 175.38 , 316.52 174.86 , 316.52 174.33 , 316.52 173.81 , 316.52 173.28 , 316.52 172.76 , 316.52 172.23 , 316.52 171.71 , 316.52 171.18 , 316.52 170.66 , 316.52 170.13 , 316.52 169.61 , 316.52 169.08 , 316.52 168.56 , 316.52 168.03 , 316.52 167.51 , 316.52 166.98 , 316.52 166.46 , 316.52 165.93 , 316.52 165.41 , 316.52 164.88 , 316.52 164.36 , 316.52 163.83 , 316.52 163.31 , 316.52 162.78 , 316.52 162.26 , 316.52 161.73 , 316.52 161.21 , 316.52 160.68 , 316.52 160.16 , 316.52 159.63 , 316.52 159.11 , 316.52 158.58 , 316.52 158.06 , 316.52 157.53 , 316.52 157.01 , 316.52 156.48 , 316.52 155.96 , 316.52 155.43 , 316.52 154.91 , 316.52 154.38 , 316.52 153.86 , 316.52 153.33 , 316.52 152.81 , 316.52 152.28 , 316.52 151.76 , 316.52 151.23 , 316.52 150.71 , 316.52 150.18 , 316.52 149.66 , 316.52 149.13 , 316.52 148.61 , 316.52 148.08 , 316.52 147.56 , 316.52 147.03 , 316.52 146.51 , 316.52 145.98 , 316.52 145.46 , 316.52 144.93 , 316.52 144.41 , 316.52 143.88 , 316.52 143.36 , 316.52 142.83 , 316.52 142.31 , 316.52 141.78 , 316.52 141.26 , 316.52 140.73 , 316.52 140.21 , 316.52 139.68 , 316.52 139.16 , 316.52 138.63 , 316.52 138.11 , 316.52 137.58 , 316.52 137.06 , 316.52 136.53 , 316.52 136.01 , 316.52 135.48 , 316.52 134.96 , 316.52 134.43 , 316.52 133.91 , 316.52 133.38 , 316.52 132.86 , 316.52 132.33 , 316.52 131.81 , 316.52 131.28 , 316.52 130.76 , 316.52 130.23 , 316.52 129.71 , 316.52 129.18 , 316.52 128.66 , 316.52 128.13 , 316.52 127.61 , 316.52 127.08 , 316.52 126.56 , 316.52 126.03 , 316.52 125.51 , 316.52 124.98 , 316.52 124.46 , 316.52 123.93 , 316.52 123.41 , 316.52 122.88 , 316.52 122.36 , 316.52 121.83 , 316.52 121.31 , 316.52 120.78 , 316.52 120.26 , 316.52 119.73 , 316.52 119.21 , 316.52 118.68 , 316.52 118.16 , 316.52 117.63 , 316.52 117.11 , 316.52 116.58 , 316.52 116.06 , 316.52 115.53 , 316.52 115.01 , 316.52 114.48 , 316.52 113.96 , 316.52 113.44 , 316.52 112.91 , 316.52 112.39 , 316.52 111.86 , 316.52 111.34 , 316.52 110.81 , 316.52 110.29 , 316.52 109.76 , 316.52 109.24 , 316.52 108.71 , 316.52 108.19 , 316.52 107.66 , 316.52 107.14 , 316.52 106.61 , 316.52 106.09 , 316.52 105.56 , 316.52 105.04 , 316.52 104.51 , 316.52 103.99 , 316.52 103.46 , 316.52 102.94 , 316.52 102.41 , 316.52 101.89 , 316.52 101.36 , 316.52 100.84 , 316.52 100.31 , 316.52 99.79 , 316.52 99.26 , 316.52 98.74 , 316.52 98.21 , 316.52 97.69 , 316.52 97.16 , 316.52 96.64 , 316.52 96.11 , 316.52 95.59 , 316.52 95.06 , 316.52 94.54 , 316.52 94.01 , 316.52 93.49 , 316.52 92.96 , 316.52 92.44 , 316.52 91.91 , 316.52 91.39 , 316.52 90.86 , 316.52 90.34 , 316.52 89.81 , 316.52 89.29 , 316.52 88.76 , 316.52 88.24 , 316.52 87.71 , 316.52 87.19 , 316.52 86.66 , 316.52 86.14 , 316.52 85.61 , 316.52 85.09 , 316.52 84.56 , 316.52 84.04 , 316.52 83.51 , 316.52 82.99 , 316.52 82.46 , 316.52 81.94 , 316.52 81.41 , 316.52 80.89 , 316.52 80.36 , 316.52 79.84 , 316.52 79.31 , 316.52 78.79 , 316.52 78.26 , 316.52 77.74 , 316.52 77.21 , 316.52 76.69 , 316.52 76.16 , 316.52 75.64 , 316.52 75.11 , 316.52 74.59 , 316.52 74.06 , 316.52 73.54 , 316.52 73.01 , 316.52 72.49 , 316.52 71.96 , 316.52 71.44 , 316.52 70.91 , 316.52 70.39 , 316.52 69.86 , 316.52 69.34 , 316.52 68.81 , 316.52 68.29 , 316.52 67.76 , 316.52 67.24 , 316.52 66.71 , 316.52 66.19 , 316.52 65.66 , 316.52 65.14 , 316.52 64.61 , 316.52 64.61 , 98.79 " style="stroke-width:1;stroke:#F8766D;fill:#000000;stroke-opacity:1.000000;fill-opacity:0.000000"/>
<polyline points="64.61 , 96.11 65.14 , 87.83 65.66 , 80.12 66.19 , 72.93 66.71 , 66.31 67.24 , 60.28 67.76 , 54.86 68.29 , 50.25 68.81 , 46.29 69.34 , 42.99 69.86 , 40.32 70.39 , 38.27 70.91 , 36.89 71.44 , 36.19 71.96 , 36.03 72.49 , 36.36 73.01 , 37.17 73.54 , 38.40 74.06 , 40.11 74.59 , 42.16 75.11 , 44.49 75.64 , 47.07 76.16 , 49.85 76.69 , 52.82 77.21 , 55.94 77.74 , 59.14 78.26 , 62.40 78.79 , 65.68 79.31 , 68.98 79.84 , 72.25 80.36 , 75.49 80.89 , 78.66 81.41 , 81.78 81.94 , 84.82 82.46 , 87.78 82.99 , 90.63 83.51 , 93.39 84.04 , 96.06 84.56 , 98.64 85.09 , 101.13 85.61 , 103.52 86.14 , 105.82 86.66 , 108.04 87.19 , 110.18 87.71 , 112.26 88.24 , 114.26 88.76 , 116.19 89.29 , 118.06 89.81 , 119.88 90.34 , 121.64 90.86 , 123.36 91.39 , 125.03 91.91 , 126.65 92.44 , 128.24 92.96 , 129.79 93.49 , 131.30 94.01 , 132.78 94.54 , 134.22 95.06 , 135.63 95.59 , 137.01 96.11 , 138.36 96.64 , 139.68 97.16 , 140.96 97.69 , 142.22 98.21 , 143.45 98.74 , 144.65 99.26 , 145.83 99.79 , 146.98 100.31 , 148.09 100.84 , 149.19 101.36 , 150.25 101.89 , 151.30 102.41 , 152.32 102.94 , 153.32 103.46 , 154.29 103.99 , 155.25 104.51 , 156.18 105.04 , 157.10 105.56 , 158.00 106.09 , 158.87 106.61 , 159.73 107.14 , 160.58 107.66 , 161.41 108.19 , 162.23 108.71 , 163.03 109.24 , 163.81 109.76 , 164.58 110.29 , 165.34 110.81 , 166.09 111.34 , 166.83 111.86 , 167.55 112.39 , 168.25 112.91 , 168.95 113.44 , 169.63 113.96 , 170.30 114.48 , 170.96 115.01 , 171.60 115.53 , 172.23 116.06 , 172.85 116.58 , 173.45 117.11 , 174.04 117.63 , 174.62 118.16 , 175.18 118.68 , 175.73 119.21 , 176.26 119.73 , 176.79 120.26 , 177.30 120.78 , 177.79 121.31 , 178.28 121.83 , 178.75 122.36 , 179.21 122.88 , 179.65 123.41 , 180.09 123.93 , 180.51 124.46 , 180.93 124.98 , 181.34 125.51 , 181.73 126.03 , 182.12 126.56 , 182.51 127.08 , 182.88 127.61 , 183.26 128.13 , 183.62 128.66 , 183.99 129.18 , 184.35 129.71 , 184.71 130.23 , 185.06 130.76 , 185.42 131.28 , 185.77 131.81 , 186.13 132.33 , 186.49 132.86 , 186.84 133.38 , 187.20 133.91 , 187.56 134.43 , 187.92 134.96 , 188.27 135.48 , 188.63 136.01 , 188.99 136.53 , 189.35 137.06 , 189.70 137.58 , 190.06 138.11 , 190.41 138.63 , 190.76 139.16 , 191.11 139.68 , 191.45 140.21 , 191.79 140.73 , 192.13 141.26 , 192.46 141.78 , 192.78 142.31 , 193.11 142.83 , 193.43 143.36 , 193.74 143.88 , 194.05 144.41 , 194.36 144.93 , 194.66 145.46 , 194.96 145.98 , 195.25 146.51 , 195.54 147.03 , 195.83 147.56 , 196.12 148.08 , 196.40 148.61 , 196.68 149.13 , 196.96 149.66 , 197.23 150.18 , 197.51 150.71 , 197.78 151.23 , 198.05 151.76 , 198.32 152.28 , 198.58 152.81 , 198.85 153.33 , 199.11 153.86 , 199.37 154.38 , 199.63 154.91 , 199.88 155.43 , 200.14 155.96 , 200.40 156.48 , 200.65 157.01 , 200.91 157.53 , 201.17 158.06 , 201.42 158.58 , 201.68 159.11 , 201.94 159.63 , 202.21 160.16 , 202.47 160.68 , 202.74 161.21 , 203.01 161.73 , 203.28 162.26 , 203.56 162.78 , 203.84 163.31 , 204.12 163.83 , 204.40 164.36 , 204.68 164.88 , 204.97 165.41 , 205.25 165.93 , 205.54 166.46 , 205.82 166.98 , 206.11 167.51 , 206.39 168.03 , 206.66 168.56 , 206.93 169.08 , 207.20 169.61 , 207.46 170.13 , 207.72 170.66 , 207.97 171.18 , 208.21 171.71 , 208.44 172.23 , 208.67 172.76 , 208.88 173.28 , 209.09 173.81 , 209.29 174.33 , 209.47 174.86 , 209.65 175.38 , 209.82 175.91 , 209.98 176.43 , 210.13 176.96 , 210.27 177.48 , 210.40 178.01 , 210.52 178.53 , 210.64 179.06 , 210.74 179.58 , 210.84 180.11 , 210.93 180.63 , 211.02 181.16 , 211.10 181.68 , 211.18 182.21 , 211.25 182.73 , 211.32 183.26 , 211.38 183.78 , 211.45 184.31 , 211.51 184.83 , 211.57 185.36 , 211.64 185.88 , 211.70 186.41 , 211.77 186.93 , 211.84 187.46 , 211.91 187.98 , 211.99 188.51 , 212.07 189.03 , 212.15 189.56 , 212.24 190.08 , 212.34 190.61 , 212.44 191.13 , 212.55 191.66 , 212.66 192.18 , 212.78 192.71 , 212.91 193.23 , 213.04 193.76 , 213.18 194.28 , 213.32 194.80 , 213.47 195.33 , 213.62 195.85 , 213.77 196.38 , 213.93 196.90 , 214.10 197.43 , 214.26 197.95 , 214.43 198.48 , 214.59 199.00 , 214.76 199.53 , 214.93 200.05 , 215.10 200.58 , 215.26 201.10 , 215.43 201.63 , 215.59 202.15 , 215.75 202.68 , 215.90 203.20 , 216.06 203.73 , 216.21 204.25 , 216.35 204.78 , 216.49 205.30 , 216.63 205.83 , 216.76 206.35 , 216.89 206.88 , 217.01 207.40 , 217.13 207.93 , 217.24 208.45 , 217.35 208.98 , 217.45 209.50 , 217.55 210.03 , 217.64 210.55 , 217.73 211.08 , 217.82 211.60 , 217.90 212.13 , 217.98 212.65 , 218.06 213.18 , 218.13 213.70 , 218.20 214.23 , 218.27 214.75 , 218.33 215.28 , 218.40 215.80 , 218.46 216.33 , 218.52 216.85 , 218.58 217.38 , 218.64 217.90 , 218.70 218.43 , 218.76 218.95 , 218.82 219.48 , 218.88 220.00 , 218.94 220.53 , 219.00 221.05 , 219.06 221.58 , 219.13 222.10 , 219.19 222.63 , 219.26 223.15 , 219.33 223.68 , 219.40 224.20 , 219.47 224.73 , 219.54 225.25 , 219.61 225.78 , 219.69 226.30 , 219.77 226.83 , 219.85 227.35 , 219.93 227.88 , 220.01 228.40 , 220.10 228.93 , 220.19 229.45 , 220.28 229.98 , 220.38 230.50 , 220.47 231.03 , 220.57 231.55 , 220.67 232.08 , 220.78 232.60 , 220.88 233.13 , 220.99 233.65 , 221.10 234.18 , 221.22 234.70 , 221.33 235.23 , 221.45 235.75 , 221.56 236.28 , 221.68 236.80 , 221.80 237.33 , 221.92 237.85 , 222.03 238.38 , 222.15 238.90 , 222.26 239.43 , 222.37 239.95 , 222.48 240.48 , 222.58 241.00 , 222.68 241.53 , 222.77 242.05 , 222.86 242.58 , 222.94 243.10 , 223.02 243.63 , 223.09 244.15 , 223.15 244.68 , 223.20 245.20 , 223.25 245.73 , 223.29 246.25 , 223.33 246.78 , 223.35 247.30 , 223.37 247.83 , 223.39 248.35 , 223.40 248.88 , 223.40 249.40 , 223.40 249.93 , 223.39 250.45 , 223.38 250.98 , 223.37 251.50 , 223.36 252.03 , 223.34 252.55 , 223.32 253.08 , 223.30 253.60 , 223.29 254.13 , 223.27 254.65 , 223.25 255.18 , 223.24 255.70 , 223.23 256.23 , 223.22 256.75 , 223.22 257.28 , 223.22 257.80 , 223.23 258.33 , 223.24 258.85 , 223.25 259.38 , 223.28 259.90 , 223.30 260.43 , 223.34 260.95 , 223.38 261.48 , 223.43 262.00 , 223.48 262.53 , 223.54 263.05 , 223.60 263.58 , 223.67 264.10 , 223.75 264.63 , 223.83 265.15 , 223.91 265.68 , 223.99 266.20 , 224.08 266.73 , 224.18 267.25 , 224.27 267.78 , 224.36 268.30 , 224.45 268.83 , 224.54 269.35 , 224.63 269.88 , 224.72 270.40 , 224.81 270.93 , 224.89 271.45 , 224.97 271.98 , 225.05 272.50 , 225.12 273.03 , 225.18 273.55 , 225.25 274.08 , 225.30 274.60 , 225.36 275.13 , 225.41 275.65 , 225.45 276.17 , 225.50 276.70 , 225.53 277.22 , 225.57 277.75 , 225.60 278.27 , 225.63 278.80 , 225.66 279.32 , 225.68 279.85 , 225.70 280.37 , 225.73 280.90 , 225.75 281.42 , 225.77 281.95 , 225.79 282.47 , 225.80 283.00 , 225.82 283.52 , 225.84 284.05 , 225.86 284.57 , 225.87 285.10 , 225.89 285.62 , 225.91 286.15 , 225.93 286.67 , 225.95 287.20 , 225.97 287.72 , 225.99 288.25 , 226.01 288.77 , 226.03 289.30 , 226.05 289.82 , 226.07 290.35 , 226.09 290.87 , 226.11 291.40 , 226.13 291.92 , 226.16 292.45 , 226.18 292.97 , 226.20 293.50 , 226.23 294.02 , 226.25 294.55 , 226.28 295.07 , 226.30 295.60 , 226.32 296.12 , 226.35 296.65 , 226.37 297.17 , 226.40 297.70 , 226.42 298.22 , 226.44 298.75 , 226.46 299.27 , 226.48 299.80 , 226.50 300.32 , 226.52 300.85 , 226.54 301.37 , 226.56 301.90 , 226.57 302.42 , 226.59 302.95 , 226.60 303.47 , 226.61 304.00 , 226.62 304.52 , 226.62 305.05 , 226.63 305.57 , 226.63 306.10 , 226.64 306.62 , 226.64 307.15 , 226.64 307.67 , 226.64 308.20 , 226.64 308.72 , 226.64 309.25 , 226.64 309.77 , 226.64 310.30 , 226.64 310.82 , 226.65 311.35 , 226.66 311.87 , 226.67 312.40 , 226.69 312.92 , 226.72 313.45 , 226.77 313.97 , 226.82 314.50 , 226.89 315.02 , 226.97 315.55 , 227.09 316.07 , 227.23 316.60 , 227.39 317.12 , 227.59 317.65 , 227.83 318.17 , 228.11 318.70 , 228.45 319.22 , 228.84 319.75 , 229.29 320.27 , 229.81 320.80 , 230.39 321.32 , 231.07 321.85 , 231.83 322.37 , 232.67 322.90 , 233.61 323.42 , 234.65 323.95 , 235.78 324.47 , 237.05 325.00 , 238.42 325.52 , 239.89 326.05 , 241.48 326.57 , 243.17 327.10 , 244.98 327.62 , 246.91 328.15 , 248.93 328.67 , 251.05 329.20 , 253.25 329.72 , 255.54 330.25 , 257.92 330.77 , 260.35 331.30 , 262.84 331.82 , 265.36 332.35 , 267.91 332.87 , 270.49 332.87 , 316.52 332.35 , 316.52 331.82 , 316.52 331.30 , 316.52 330.77 , 316.52 330.25 , 316.52 329.72 , 316.52 329.20 , 316.52 328.67 , 316.52 328.15 , 316.52 327.62 , 316.52 327.10 , 316.52 326.57 , 316.52 326.05 , 316.52 325.52 , 316.52 325.00 , 316.52 324.47 , 316.52 323.95 , 316.52 323.42 , 316.52 322.90 , 316.52 322.37 , 316.52 321.85 , 316.52 321.32 , 316.52 320.80 , 316.52 320.27 , 316.52 319.75 , 316.52 319.22 , 316.52 318.70 , 316.52 318.17 , 316.52 317.65 , 316.52 317.12 , 316.52 316.60 , 316.52 316.07 , 316.52 315.55 , 316.52 315.02 , 316.52 314.50 , 316.52 313.97 , 316.52 313.45 , 316.52 312.92 , 316.52 312.40 , 316.52 311.87 , 316.52 311.35 , 316.52 310.82 , 316.52 310.30 , 316.52 309.77 , 316.52 309.25 , 316.52 308.72 , 316.52 308.20 , 316.52 307.67 , 316.52 307.15 , 316.52 306.62 , 316.52 306.10 , 316.52 305.57 , 316.52 305.05 , 316.52 304.52 , 316.52 304.00 , 316.52 303.47 , 316.52 302.95 , 316.52 302.42 , 316.52 301.90 , 316.52 301.37 , 316.52 300.85 , 316.52 300.32 , 316.52 299.80 , 316.52 299.27 , 316.52 298.75 , 316.52 298.22 , 316.52 297.70 , 316.52 297.17 , 316.52 296.65 , 316.52 296.12 , 316.52 295.60 , 316.52 295.07 , 316.52 294.55 , 316.52 294.02 , 316.52 293.50 , 316.52 292.97 , 316.52 292.45 , 316.52 291.92 , 316.52 291.40 , 316.52 290.87 , 316.52 290.35 , 316.52 289.82 , 316.52 289.30 , 316.52 288.77 , 316.52 288.25 , 316.52 287.72 , 316.52 287.20 , 316.52 286.67 , 316.52 286.15 , 316.52 285.62 , 316.52 285.10 , 316.52 284.57 , 316.52 284.05 , 316.52 283.52 , 316.52 283.00 , 316.52 282.47 , 316.52 281.95 , 316.52 281.42 , 316.52 280.90 , 316.52 280.37 , 316.52 279.85 , 316.52 279.32 , 316.52 278.80 , 316.52 278.27 , 316.52 277.75 , 316.52 277.22 , 316.52 276.70 , 316.52 276.17 , 316.52 275.65 , 316.52 275.13 , 316.52 274.60 , 316.52 274.08 , 316.52 273.55 , 316.52 273.03 , 316.52 272.50 , 316.52 271.98 , 316.52 271.45 , 316.52 270.93 , 316.52 270.40 , 316.52 269.88 , 316.52 269.35 , 316.52 268.83 , 316.52 268.30 , 316.52 267.78 , 316.52 267.25 , 316.52 266.73 , 316.52 266.20 , 316.52 265.68 , 316.52 265.15 , 316.52 264.63 , 316.52 264.10 , 316.52 263.58 , 316.52 263.05 , 316.52 262.53 , 316.52 262.00 , 316.52 261.48 , 316.52 260.95 , 316.52 260.43 , 316.52 259.90 , 316.52 259.38 , 316.52 258.85 , 316.52 258.33 , 316.52 257.80 , 316.52 257.28 , 316.52 256.75 , 316.52 256.23 , 316.52 255.70 , 316.52 255.18 , 316.52 254.65 , 316.52 254.13 , 316.52 253.60 , 316.52 253.08 , 316.52 252.55 , 316.52 252.03 , 316.52 251.50 , 316.52 250.98 , 316.52 250.45 , 316.52 249.93 , 316.52 249.40 , 316.52 248.88 , 316.52 248.35 , 316.52 247.83 , 316.52 247.30 , 316.52 246.78 , 316.52 246.25 , 316.52 245.73 , 316.52 245.20 , 316.52 244.68 , 316.52 244.15 , 316.52 243.63 , 316.52 243.10 , 316.52 242.58 , 316.52 242.05 , 316.52 241.53 , 316.52 241.00 , 316.52 240.48 , 316.52 239.95 , 316.52 239.43 , 316.52 238.90 , 316.52 238.38 , 316.52 237.85 , 316.52 237.33 , 316.52 236.80 , 316.52 236.28 , 316.52 235.75 , 316.52 235.23 , 316.52 234.70 , 316.52 234.18 , 316.52 233.65 , 316.52 233.13 , 316.52 232.60 , 316.52 232.08 , 316.52 231.55 , 316.52 231.03 , 316.52 230.50 , 316.52 229.98 , 316.52 229.45 , 316.52 228.93 , 316.52 228.40 , 316.52 227.88 , 316.52 227.35 , 316.52 226.83 , 316.52 226.30 , 316.52 225.78 , 316.52 225.25 , 316.52 224.73 , 316.52 224.20 , 316.52 223.68 , 316.52 223.15 , 316.52 222.63 , 316.52 222.10 , 316.52 221.58 , 316.52 221.05 , 316.52 220.53 , 316.52 220.00 , 316.52 219.48 , 316.52 218.95 , 316.52 218.43 , 316.52 217.90 , 316.52 217.38 , 316.52 216.85 , 316.52 216.33 , 316.52 215.80 , 316.52 215.28 , 316.52 214.75 , 316.52 214.23 , 316.52 213.70 , 316.52 213.18 , 316.52 212.65 , 316.52 212.13 , 316.52 211.60 , 316.52 211.08 , 316.52 210.55 , 316.52 210.03 , 316.52 209.50 , 316.52 208.98 , 316.52 208.45 , 316.52 207.93 , 316.52 207.40 , 316.52 206.88 , 316.52 206.35 , 316.52 205.83 , 316.52 205.30 , 316.52 204.78 , 316.52 204.25 , 316.52 203.73 , 316.52 203.20 , 316.52 202.68 , 316.52 202.15 , 316.52 201.63 , 316.52 201.10 , 316.52 200.58 , 316.52 200.05 , 316.52 199.53 , 316.52 199.00 , 316.52 198.48 , 316.52 197.95 , 316.52 197.43 , 316.52 196.90 , 316.52 196.38 , 316.52 195.85 , 316.52 195.33 , 316.52 194.80 , 316.52 194.28 , 316.52 193.76 , 316.52 193.23 , 316.52 192.71 , 316.52 192.18 , 316.52 191.66 , 316.52 191.13 , 316.52 190.61 , 316.52 190.08 , 316.52 189.56 , 316.52 189.03 , 316.52 188.51 , 316.52 187.98 , 316.52 187.46 , 316.52 186.93 , 316.52 186.41 , 316.52 185.88 , 316.52 185.36 , 316.52 184.83 , 316.52 184.31 , 316.52 183.78 , 316.52 183.26 , 316.52 182.73 , 316.52 182.21 , 316.52 181.68 , 316.52 181.16 , 316.52 180.63 , 316.52 180.11 , 316.52 179.58 , 316.52 179.06 , 316.52 178.53 , 316.52 178.01 , 316.52 177.48 , 316.52 176.96 , 316.52 176.43 , 316.52 175.91 , 316.52 175.38 , 316.52 174.86 , 316.52 174.33 , 316.52 173.81 , 316.52 173.28 , 316.52 172.76 , 316.52 172.23 , 316.52 171.71 , 316.52 171.18 , 316.52 170.66 , 316.52 170.13 , 316.52 169.61 , 316.52 169.08 , 316.52 168.56 , 316.52 168.03 , 316.52 167.51 , 316.52 166.98 , 316.52 166.46 , 316.52 165.93 , 316.52 165.41 , 316.52 164.88 , 316.52 164.36 , 316.52 163.83 , 316.52 163.31 , 316.52 162.78 , 316.52 162.26 , 316.52 161.73 , 316.52 161.21 , 316.52 160.68 , 316.52 160.16 , 316.52 159.63 , 316.52 159.11 , 316.52 158.58 , 316.52 158.06 , 316.52 157.53 , 316.52 157.01 , 316.52 156.48 , 316.52 155.96 , 316.52 155.43 , 316.52 154.91 , 316.52 154.38 , 316.52 153.86 , 316.52 153.33 , 316.52 152.81 , 316.52 152.28 , 316.52 151.76 , 316.52 151.23 , 316.52 150.71 , 316.52 150.18 , 316.52 149.66 , 316.52 149.13 , 316.52 148.61 , 316.52 148.08 , 316.52 147.56 , 316.52 147.03 , 316.52 146.51 , 316.52 145.98 , 316.52 145.46 , 316.52 144.93 , 316.52 144.41 , 316.52 143.88 , 316.52 143.36 , 316.52 142.83 , 316.52 142.31 , 316.52 141.78 , 316.52 141.26 , 316.52 140.73 , 316.52 140.21 , 316.52 139.68 , 316.52 139.16 , 316.52 138.63 , 316.52 138.11 , 316.52 137.58 , 316.52 137.06 , 316.52 136.53 , 316.52 136.01 , 316.52 135.48 , 316.52 134.96 , 316.52 134.43 , 316.52 133.91 , 316.52 133.38 , 316.52 132.86 , 316.52 132.33 , 316.52 131.81 , 316.52 131.28 , 316.52 130.76 , 316.52 130.23 , 316.52 129.71 , 316.52 129.18 , 316.52 128.66 , 316.52 128.13 , 316.52 127.61 , 316.52 127.08 , 316.52 126.56 , 316.52 126.03 , 316.52 125.51 , 316.52 124.98 , 316.52 124.46 , 316.52 123.93 , 316.52 123.41 , 316.52 122.88 , 316.52 122.36 , 316.52 121.83 , 316.52 121.31 , 316.52 120.78 , 316.52 120.26 , 316.52 119.73 , 316.52 119.21 , 316.52 118.68 , 316.52 118.16 , 316.52 117.63 , 316.52 117.11 , 316.52 116.58 , 316.52 116.06 , 316.52 115.53 , 316.52 115.01 , 316.52 114.48 , 316.52 113.96 , 316.52 113.44 , 316.52 112.91 , 316.52 112.39 , 316.52 111.86 , 316.52 111.34 , 316.52 110.81 , 316.52 110.29 , 316.52 109.76 , 316.52 109.24 , 316.52 108.71 , 316.52 108.19 , 316.52 107.66 , 316.52 107.14 , 316.52 106.61 , 316.52 106.09 , 316.52 105.56 , 316.52 105.04 , 316.52 104.51 , 316.52 103.99 , 316.52 103.46 , 316.52 102.94 , 316.52 102.41 , 316.52 101.89 , 316.52 101.36 , 316.52 100.84 , 316.52 100.31 , 316.52 99.79 , 316.52 99.26 , 316.52 98.74 , 316.52 98.21 , 316.52 97.69 , 316.52 97.16 , 316.52 96.64 , 316.52 96.11 , 316.52 95.59 , 316.52 95.06 , 316.52 94.54 , 316.52 94.01 , 316.52 93.49 , 316.52 92.96 , 316.52 92.44 , 316.52 91.91 , 316.52 91.39 , 316.52 90.86 , 316.52 90.34 , 316.52 89.81 , 316.52 89.29 , 316.52 88.76 , 316.52 88.24 , 316.52 87.71 , 316.52 87.19 , 316.52 86.66 , 316.52 86.14 , 316.52 85.61 , 316.52 85.09 , 316.52 84.56 , 316.52 84.04 , 316.52 83.51 , 316.52 82.99 , 316.52 82.46 , 316.52 81.94 , 316.52 81.41 , 316.52 80.89 , 316.52 80.36 , 316.52 79.84 , 316.52 79.31 , 316.52 78.79 , 316.52 78.26 , 316.52 77.74 , 316.52 77.21 , 316.52 76.69 , 316.52 76.16 , 316.52 75.64 , 316.52 75.11 , 316.52 74.59 , 316.52 74.06 , 316.52 73.54 , 316.52 73.01 , 316.52 72.49 , 316.52 71.96 , 316.52 71.44 , 316.52 70.91 , 316.52 70.39 , 316.52 69.86 , 316.52 69.34 , 316.52 68.81 , 316.52 68.29 , 316.52 67.76 , 316.52 67.24 , 316.52 66.71 , 316.52 66.19 , 316.52 65.66 , 316.52 65.14 , 316.52 64.61 , 316.52 64.61 , 96.11 " style="stroke-width:1;stroke:#00BFC4;fill:#000000;stroke-opacity:1.000000;fill-opacity:0.000000"/>
<polyline points="346.28 , 22.00 346.28 , 330.55 51.20 , 330.55 " style="stroke-width:1;stroke:#333333;fill:#000000;stroke-opacity:1.000000;fill-opacity:0.000000"/>
<text transform="translate(41.75,319.82)"  style="font-size:9" >0</text>
<text transform="translate(21.50,256.00)"  style="font-size:9" >50000</text>
<text transform="translate(16.55,192.18)"  style="font-size:9" >100000</text>
<text transform="translate(16.55,128.36)"  style="font-size:9" >150000</text>
<text transform="translate(16.55,64.54)"  style="font-size:9" >200000</text>
<polyline points="48.45 , 316.52 51.20 , 316.52 " style="stroke-width:1;stroke:#333333;fill:#000000;stroke-opacity:1.000000;fill-opacity:0.000000"/>
<polyline points="48.45 , 252.70 51.20 , 252.70 " style="stroke-width:1;stroke:#333333;fill:#000000;stroke-opacity:1.000000;fill-opacity:0.000000"/>
<polyline points="48.45 , 188.88 51.20 , 188.88 " style="stroke-width:1;stroke:#333333;fill:#000000;stroke-opacity:1.000000;fill-opacity:0.000000"/>
<polyline points="48.45 , 125.06 51.20 , 125.06 " style="stroke-width:1;stroke:#333333;fill:#000000;stroke-opacity:1.000000;fill-opacity:0.000000"/>
<polyline points="48.45 , 61.24 51.20 , 61.24 " style="stroke-width:1;stroke:#333333;fill:#000000;stroke-opacity:1.000000;fill-opacity:0.000000"/>
<polyline points="64.61 , 333.30 64.61 , 330.55 " style="stroke-width:1;stroke:#333333;fill:#000000;stroke-opacity:1.000000;fill-opacity:0.000000"/>
<polyline points="131.68 , 333.30 131.68 , 330.55 " style="stroke-width:1;stroke:#333333;fill:#000000;stroke-opacity:1.000000;fill-opacity:0.000000"/>
<polyline points="198.74 , 333.30 198.74 , 330.55 " style="stroke-width:1;stroke:#333333;fill:#000000;stroke-opacity:1.000000;fill-opacity:0.000000"/>
<polyline points="265.81 , 333.30 265.81 , 330.55 " style="stroke-width:1;stroke:#333333;fill:#000000;stroke-opacity:1.000000;fill-opacity:0.000000"/>
<polyline points="332.87 , 333.30 332.87 , 330.55 " style="stroke-width:1;stroke:#333333;fill:#000000;stroke-opacity:1.000000;fill-opacity:0.000000"/>
<text transform="translate(55.81,342.10)"  style="font-size:9" >0.00</text>
<text transform="translate(122.88,342.10)"  style="font-size:9" >0.25</text>
<text transform="translate(189.94,342.10)"  style="font-size:9" >0.50</text>
<text transform="translate(257.01,342.10)"  style="font-size:9" >0.75</text>
<text transform="translate(324.07,342.10)"  style="font-size:9" >1.00</text>
<text transform="translate(164.51,355.85)"  style="font-size:11" >ISIGEM score</text>
<text transform="translate(13.75,216.80) rotate(-90)"  style="font-size:11" >Count of reports</text>
<rect x="357.67" y="150.20" width="70.45" height="52.15" style="stroke-width:1;stroke:#FFFFFF;fill:#FFFFFF;stroke-opacity:0.000000;fill-opacity:1.000000" />
<text transform="translate(363.36,164.14)"  style="font-size:11" >kind</text>
<rect x="363.36" y="167.75" width="14.45" height="14.45" style="stroke-width:1;stroke:#FFFFFF;fill:#FFFFFF;stroke-opacity:0.000000;fill-opacity:1.000000" />
<rect x="364.07" y="168.46" width="13.03" height="13.03" style="stroke-width:1;stroke:#F8766D;fill:#FFFFFF;stroke-opacity:1.000000;fill-opacity:0.000000" />
<rect x="363.36" y="182.21" width="14.45" height="14.45" style="stroke-width:1;stroke:#FFFFFF;fill:#FFFFFF;stroke-opacity:0.000000;fill-opacity:1.000000" />
<rect x="364.07" y="182.92" width="13.03" height="13.03" style="stroke-width:1;stroke:#00BFC4;fill:#FFFFFF;stroke-opacity:1.000000;fill-opacity:0.000000" />
<text transform="translate(379.62,178.28)"  style="font-size:9" >DE mRNAs</text>
<text transform="translate(379.62,192.73)"  style="font-size:9" >overall</text>
<text transform="translate(51.20,15.40)"  style="font-size:13" >Distribution of ISIGEM scores</text>
</svg>
