<?xml version="1.0" encoding="UTF-8"?>
<svg xmlns="http://www.w3.org/2000/svg" width="433.62" height="361.35" viewBox="0,0,433.62,361.35">
<desc>R SVG Plot!</desc>
<rect width="100%" height="100%" style="fill:#FFFFFF"/>
<polygon points="0.00 , 0.00 433.62 , 0.00 433.62 , 361.35 0.00 , 361.35 " style="stroke-width:1;stroke:#FFFFFF;fill:#FFFFFF;stroke-opacity:1.000000;fill-opacity:1.000000" />
<polygon points="92.00 , 305.35 92.00 , 40.00 423.62 , 40.00 423.62 , 305.35 " style="stroke-width:1;stroke:#FFFFFF;fill:#FFFFFF;stroke-opacity:0.000000;fill-opacity:1.000000" />
<polyline points="107.07 , 106.04 107.66 , 98.94 108.25 , 92.28 108.84 , 86.08 109.43 , 80.34 110.02 , 75.11 110.61 , 70.39 111.20 , 66.37 111.79 , 62.89 112.38 , 59.95 112.97 , 57.55 113.56 , 55.68 114.15 , 54.40 114.74 , 53.66 115.33 , 53.39 115.92 , 53.54 116.51 , 54.08 117.10 , 55.00 117.69 , 56.32 118.28 , 57.93 118.87 , 59.78 119.46 , 61.84 120.05 , 64.09 120.64 , 66.49 121.23 , 69.03 121.82 , 71.64 122.41 , 74.30 123.00 , 77.00 123.59 , 79.72 124.18 , 82.43 124.77 , 85.11 125.36 , 87.76 125.95 , 90.37 126.54 , 92.92 127.13 , 95.41 127.72 , 97.83 128.31 , 100.18 128.90 , 102.47 129.49 , 104.68 130.08 , 106.84 130.67 , 108.91 131.26 , 110.92 131.85 , 112.86 132.44 , 114.75 133.03 , 116.58 133.62 , 118.35 134.21 , 120.06 134.80 , 121.73 135.39 , 123.35 135.98 , 124.92 136.57 , 126.45 137.16 , 127.93 137.75 , 129.38 138.34 , 130.78 138.93 , 132.15 139.52 , 133.48 140.11 , 134.78 140.70 , 136.04 141.29 , 137.27 141.88 , 138.47 142.47 , 139.64 143.06 , 140.78 143.65 , 141.89 144.24 , 142.96 144.83 , 144.01 145.42 , 145.04 146.01 , 146.03 146.60 , 147.01 147.19 , 147.95 147.78 , 148.86 148.37 , 149.76 148.96 , 150.63 149.55 , 151.48 150.14 , 152.31 150.73 , 153.11 151.32 , 153.90 151.91 , 154.66 152.50 , 155.41 153.09 , 156.14 153.68 , 156.85 154.27 , 157.54 154.86 , 158.22 155.45 , 158.89 156.04 , 159.54 156.63 , 160.18 157.22 , 160.81 157.81 , 161.43 158.40 , 162.04 158.99 , 162.64 159.58 , 163.23 160.17 , 163.82 160.76 , 164.40 161.35 , 164.97 161.94 , 165.54 162.53 , 166.10 163.12 , 166.66 163.71 , 167.22 164.30 , 167.77 164.89 , 168.31 165.48 , 168.86 166.07 , 169.39 166.66 , 169.93 167.25 , 170.45 167.84 , 170.98 168.43 , 171.49 169.02 , 172.01 169.61 , 172.51 170.20 , 173.01 170.79 , 173.50 171.38 , 173.98 171.97 , 174.45 172.56 , 174.92 173.15 , 175.37 173.74 , 175.82 174.33 , 176.26 174.92 , 176.70 175.51 , 177.12 176.10 , 177.54 176.69 , 177.95 177.28 , 178.36 177.87 , 178.76 178.46 , 179.16 179.05 , 179.55 179.64 , 179.94 180.23 , 180.33 180.82 , 180.72 181.41 , 181.10 182.00 , 181.49 182.59 , 181.87 183.18 , 182.26 183.77 , 182.65 184.36 , 183.03 184.95 , 183.42 185.54 , 183.81 186.13 , 184.20 186.72 , 184.58 187.31 , 184.96 187.90 , 185.35 188.49 , 185.72 189.08 , 186.10 189.67 , 186.46 190.26 , 186.83 190.85 , 187.18 191.44 , 187.53 192.03 , 187.87 192.62 , 188.19 193.21 , 188.51 193.80 , 188.82 194.39 , 189.12 194.98 , 189.40 195.57 , 189.68 196.16 , 189.94 196.75 , 190.19 197.34 , 190.44 197.93 , 190.67 198.52 , 190.89 199.11 , 191.11 199.70 , 191.31 200.29 , 191.51 200.88 , 191.71 201.47 , 191.89 202.06 , 192.08 202.65 , 192.26 203.24 , 192.44 203.83 , 192.62 204.42 , 192.79 205.01 , 192.97 205.60 , 193.15 206.19 , 193.33 206.78 , 193.51 207.37 , 193.69 207.96 , 193.88 208.55 , 194.07 209.14 , 194.26 209.73 , 194.46 210.32 , 194.66 210.91 , 194.86 211.50 , 195.06 212.09 , 195.27 212.68 , 195.48 213.27 , 195.70 213.86 , 195.92 214.45 , 196.14 215.04 , 196.36 215.63 , 196.58 216.22 , 196.81 216.81 , 197.03 217.40 , 197.26 217.99 , 197.49 218.58 , 197.72 219.17 , 197.95 219.76 , 198.18 220.35 , 198.40 220.94 , 198.62 221.53 , 198.84 222.12 , 199.06 222.71 , 199.27 223.30 , 199.47 223.89 , 199.67 224.48 , 199.87 225.07 , 200.05 225.66 , 200.23 226.25 , 200.39 226.84 , 200.55 227.43 , 200.70 228.02 , 200.83 228.61 , 200.96 229.20 , 201.08 229.79 , 201.18 230.38 , 201.28 230.97 , 201.36 231.56 , 201.44 232.15 , 201.51 232.74 , 201.57 233.33 , 201.62 233.92 , 201.67 234.51 , 201.71 235.10 , 201.75 235.69 , 201.78 236.28 , 201.81 236.87 , 201.84 237.46 , 201.87 238.05 , 201.91 238.64 , 201.94 239.23 , 201.97 239.82 , 202.01 240.41 , 202.05 241.00 , 202.10 241.59 , 202.15 242.18 , 202.21 242.77 , 202.27 243.36 , 202.34 243.95 , 202.41 244.54 , 202.49 245.13 , 202.57 245.72 , 202.66 246.31 , 202.76 246.90 , 202.86 247.49 , 202.96 248.08 , 203.07 248.67 , 203.18 249.26 , 203.30 249.85 , 203.42 250.44 , 203.54 251.03 , 203.66 251.62 , 203.79 252.21 , 203.91 252.80 , 204.04 253.39 , 204.17 253.98 , 204.30 254.57 , 204.43 255.16 , 204.56 255.75 , 204.68 256.34 , 204.81 256.93 , 204.94 257.52 , 205.06 258.11 , 205.19 258.70 , 205.31 259.29 , 205.44 259.87 , 205.56 260.46 , 205.68 261.05 , 205.80 261.64 , 205.92 262.23 , 206.04 262.82 , 206.16 263.41 , 206.27 264.00 , 206.39 264.59 , 206.51 265.18 , 206.63 265.77 , 206.74 266.36 , 206.86 266.95 , 206.98 267.54 , 207.10 268.13 , 207.22 268.72 , 207.34 269.31 , 207.46 269.90 , 207.58 270.49 , 207.70 271.08 , 207.82 271.67 , 207.94 272.26 , 208.06 272.85 , 208.18 273.44 , 208.30 274.03 , 208.42 274.62 , 208.54 275.21 , 208.65 275.80 , 208.76 276.39 , 208.87 276.98 , 208.97 277.57 , 209.07 278.16 , 209.16 278.75 , 209.25 279.34 , 209.33 279.93 , 209.40 280.52 , 209.47 281.11 , 209.53 281.70 , 209.59 282.29 , 209.63 282.88 , 209.67 283.47 , 209.70 284.06 , 209.72 284.65 , 209.74 285.24 , 209.74 285.83 , 209.74 286.42 , 209.74 287.01 , 209.73 287.60 , 209.71 288.19 , 209.69 288.78 , 209.66 289.37 , 209.63 289.96 , 209.60 290.55 , 209.57 291.14 , 209.54 291.73 , 209.51 292.32 , 209.48 292.91 , 209.46 293.50 , 209.43 294.09 , 209.41 294.68 , 209.40 295.27 , 209.39 295.86 , 209.39 296.45 , 209.40 297.04 , 209.41 297.63 , 209.43 298.22 , 209.46 298.81 , 209.50 299.40 , 209.55 299.99 , 209.60 300.58 , 209.67 301.17 , 209.74 301.76 , 209.82 302.35 , 209.92 302.94 , 210.02 303.53 , 210.12 304.12 , 210.24 304.71 , 210.36 305.30 , 210.49 305.89 , 210.63 306.48 , 210.77 307.07 , 210.91 307.66 , 211.06 308.25 , 211.21 308.84 , 211.36 309.43 , 211.52 310.02 , 211.67 310.61 , 211.83 311.20 , 211.98 311.79 , 212.14 312.38 , 212.29 312.97 , 212.43 313.56 , 212.58 314.15 , 212.72 314.74 , 212.86 315.33 , 212.99 315.92 , 213.12 316.51 , 213.24 317.10 , 213.36 317.69 , 213.47 318.28 , 213.58 318.87 , 213.68 319.46 , 213.78 320.05 , 213.88 320.64 , 213.96 321.23 , 214.05 321.82 , 214.13 322.41 , 214.20 323.00 , 214.27 323.59 , 214.33 324.18 , 214.39 324.77 , 214.44 325.36 , 214.49 325.95 , 214.54 326.54 , 214.58 327.13 , 214.62 327.72 , 214.65 328.31 , 214.68 328.90 , 214.70 329.49 , 214.72 330.08 , 214.74 330.67 , 214.75 331.26 , 214.76 331.85 , 214.77 332.44 , 214.77 333.03 , 214.77 333.62 , 214.77 334.21 , 214.77 334.80 , 214.77 335.39 , 214.77 335.98 , 214.77 336.57 , 214.77 337.16 , 214.77 337.75 , 214.76 338.34 , 214.76 338.93 , 214.76 339.52 , 214.76 340.11 , 214.76 340.70 , 214.76 341.29 , 214.76 341.88 , 214.75 342.47 , 214.75 343.06 , 214.75 343.65 , 214.75 344.24 , 214.74 344.83 , 214.74 345.42 , 214.73 346.01 , 214.73 346.60 , 214.72 347.19 , 214.71 347.78 , 214.70 348.37 , 214.69 348.96 , 214.67 349.55 , 214.66 350.14 , 214.64 350.73 , 214.63 351.32 , 214.61 351.91 , 214.59 352.50 , 214.58 353.09 , 214.56 353.68 , 214.54 354.27 , 214.52 354.86 , 214.50 355.45 , 214.49 356.04 , 214.47 356.63 , 214.45 357.22 , 214.43 357.81 , 214.42 358.40 , 214.40 358.99 , 214.39 359.58 , 214.37 360.17 , 214.36 360.76 , 214.35 361.35 , 214.34 361.94 , 214.34 362.53 , 214.33 363.12 , 214.33 363.71 , 214.33 364.30 , 214.34 364.89 , 214.34 365.48 , 214.35 366.07 , 214.37 366.66 , 214.39 367.25 , 214.41 367.84 , 214.44 368.43 , 214.48 369.02 , 214.52 369.61 , 214.56 370.20 , 214.61 370.79 , 214.67 371.38 , 214.73 371.97 , 214.79 372.56 , 214.86 373.15 , 214.93 373.74 , 215.01 374.33 , 215.09 374.92 , 215.17 375.51 , 215.25 376.10 , 215.34 376.69 , 215.42 377.28 , 215.51 377.87 , 215.59 378.46 , 215.67 379.05 , 215.75 379.64 , 215.83 380.23 , 215.91 380.82 , 215.98 381.41 , 216.05 382.00 , 216.12 382.59 , 216.19 383.18 , 216.25 383.77 , 216.31 384.36 , 216.38 384.95 , 216.44 385.54 , 216.51 386.13 , 216.57 386.72 , 216.65 387.31 , 216.73 387.90 , 216.83 388.49 , 216.93 389.08 , 217.05 389.67 , 217.19 390.26 , 217.36 390.85 , 217.55 391.44 , 217.77 392.03 , 218.02 392.62 , 218.32 393.21 , 218.66 393.80 , 219.06 394.39 , 219.50 394.98 , 220.00 395.57 , 220.57 396.16 , 221.22 396.75 , 221.95 397.34 , 222.74 397.93 , 223.62 398.52 , 224.58 399.11 , 225.66 399.70 , 226.82 400.29 , 228.07 400.88 , 229.42 401.47 , 230.85 402.06 , 232.39 402.65 , 234.03 403.24 , 235.75 403.83 , 237.55 404.42 , 239.43 405.01 , 241.37 405.60 , 243.39 406.19 , 245.47 406.78 , 247.59 407.37 , 249.74 407.96 , 251.92 408.55 , 254.11 408.55 , 293.29 407.96 , 293.29 407.37 , 293.29 406.78 , 293.29 406.19 , 293.29 405.60 , 293.29 405.01 , 293.29 404.42 , 293.29 403.83 , 293.29 403.24 , 293.29 402.65 , 293.29 402.06 , 293.29 401.47 , 293.29 400.88 , 293.29 400.29 , 293.29 399.70 , 293.29 399.11 , 293.29 398.52 , 293.29 397.93 , 293.29 397.34 , 293.29 396.75 , 293.29 396.16 , 293.29 395.57 , 293.29 394.98 , 293.29 394.39 , 293.29 393.80 , 293.29 393.21 , 293.29 392.62 , 293.29 392.03 , 293.29 391.44 , 293.29 390.85 , 293.29 390.26 , 293.29 389.67 , 293.29 389.08 , 293.29 388.49 , 293.29 387.90 , 293.29 387.31 , 293.29 386.72 , 293.29 386.13 , 293.29 385.54 , 293.29 384.95 , 293.29 384.36 , 293.29 383.77 , 293.29 383.18 , 293.29 382.59 , 293.29 382.00 , 293.29 381.41 , 293.29 380.82 , 293.29 380.23 , 293.29 379.64 , 293.29 379.05 , 293.29 378.46 , 293.29 377.87 , 293.29 377.28 , 293.29 376.69 , 293.29 376.10 , 293.29 375.51 , 293.29 374.92 , 293.29 374.33 , 293.29 373.74 , 293.29 373.15 , 293.29 372.56 , 293.29 371.97 , 293.29 371.38 , 293.29 370.79 , 293.29 370.20 , 293.29 369.61 , 293.29 369.02 , 293.29 368.43 , 293.29 367.84 , 293.29 367.25 , 293.29 366.66 , 293.29 366.07 , 293.29 365.48 , 293.29 364.89 , 293.29 364.30 , 293.29 363.71 , 293.29 363.12 , 293.29 362.53 , 293.29 361.94 , 293.29 361.35 , 293.29 360.76 , 293.29 360.17 , 293.29 359.58 , 293.29 358.99 , 293.29 358.40 , 293.29 357.81 , 293.29 357.22 , 293.29 356.63 , 293.29 356.04 , 293.29 355.45 , 293.29 354.86 , 293.29 354.27 , 293.29 353.68 , 293.29 353.09 , 293.29 352.50 , 293.29 351.91 , 293.29 351.32 , 293.29 350.73 , 293.29 350.14 , 293.29 349.55 , 293.29 348.96 , 293.29 348.37 , 293.29 347.78 , 293.29 347.19 , 293.29 346.60 , 293.29 346.01 , 293.29 345.42 , 293.29 344.83 , 293.29 344.24 , 293.29 343.65 , 293.29 343.06 , 293.29 342.47 , 293.29 341.88 , 293.29 341.29 , 293.29 340.70 , 293.29 340.11 , 293.29 339.52 , 293.29 338.93 , 293.29 338.34 , 293.29 337.75 , 293.29 337.16 , 293.29 336.57 , 293.29 335.98 , 293.29 335.39 , 293.29 334.80 , 293.29 334.21 , 293.29 333.62 , 293.29 333.03 , 293.29 332.44 , 293.29 331.85 , 293.29 331.26 , 293.29 330.67 , 293.29 330.08 , 293.29 329.49 , 293.29 328.90 , 293.29 328.31 , 293.29 327.72 , 293.29 327.13 , 293.29 326.54 , 293.29 325.95 , 293.29 325.36 , 293.29 324.77 , 293.29 324.18 , 293.29 323.59 , 293.29 323.00 , 293.29 322.41 , 293.29 321.82 , 293.29 321.23 , 293.29 320.64 , 293.29 320.05 , 293.29 319.46 , 293.29 318.87 , 293.29 318.28 , 293.29 317.69 , 293.29 317.10 , 293.29 316.51 , 293.29 315.92 , 293.29 315.33 , 293.29 314.74 , 293.29 314.15 , 293.29 313.56 , 293.29 312.97 , 293.29 312.38 , 293.29 311.79 , 293.29 311.20 , 293.29 310.61 , 293.29 310.02 , 293.29 309.43 , 293.29 308.84 , 293.29 308.25 , 293.29 307.66 , 293.29 307.07 , 293.29 306.48 , 293.29 305.89 , 293.29 305.30 , 293.29 304.71 , 293.29 304.12 , 293.29 303.53 , 293.29 302.94 , 293.29 302.35 , 293.29 301.76 , 293.29 301.17 , 293.29 300.58 , 293.29 299.99 , 293.29 299.40 , 293.29 298.81 , 293.29 298.22 , 293.29 297.63 , 293.29 297.04 , 293.29 296.45 , 293.29 295.86 , 293.29 295.27 , 293.29 294.68 , 293.29 294.09 , 293.29 293.50 , 293.29 292.91 , 293.29 292.32 , 293.29 291.73 , 293.29 291.14 , 293.29 290.55 , 293.29 289.96 , 293.29 289.37 , 293.29 288.78 , 293.29 288.19 , 293.29 287.60 , 293.29 287.01 , 293.29 286.42 , 293.29 285.83 , 293.29 285.24 , 293.29 284.65 , 293.29 284.06 , 293.29 283.47 , 293.29 282.88 , 293.29 282.29 , 293.29 281.70 , 293.29 281.11 , 293.29 280.52 , 293.29 279.93 , 293.29 279.34 , 293.29 278.75 , 293.29 278.16 , 293.29 277.57 , 293.29 276.98 , 293.29 276.39 , 293.29 275.80 , 293.29 275.21 , 293.29 274.62 , 293.29 274.03 , 293.29 273.44 , 293.29 272.85 , 293.29 272.26 , 293.29 271.67 , 293.29 271.08 , 293.29 270.49 , 293.29 269.90 , 293.29 269.31 , 293.29 268.72 , 293.29 268.13 , 293.29 267.54 , 293.29 266.95 , 293.29 266.36 , 293.29 265.77 , 293.29 265.18 , 293.29 264.59 , 293.29 264.00 , 293.29 263.41 , 293.29 262.82 , 293.29 262.23 , 293.29 261.64 , 293.29 261.05 , 293.29 260.46 , 293.29 259.87 , 293.29 259.29 , 293.29 258.70 , 293.29 258.11 , 293.29 257.52 , 293.29 256.93 , 293.29 256.34 , 293.29 255.75 , 293.29 255.16 , 293.29 254.57 , 293.29 253.98 , 293.29 253.39 , 293.29 252.80 , 293.29 252.21 , 293.29 251.62 , 293.29 251.03 , 293.29 250.44 , 293.29 249.85 , 293.29 249.26 , 293.29 248.67 , 293.29 248.08 , 293.29 247.49 , 293.29 246.90 , 293.29 246.31 , 293.29 245.72 , 293.29 245.13 , 293.29 244.54 , 293.29 243.95 , 293.29 243.36 , 293.29 242.77 , 293.29 242.18 , 293.29 241.59 , 293.29 241.00 , 293.29 240.41 , 293.29 239.82 , 293.29 239.23 , 293.29 238.64 , 293.29 238.05 , 293.29 237.46 , 293.29 236.87 , 293.29 236.28 , 293.29 235.69 , 293.29 235.10 , 293.29 234.51 , 293.29 233.92 , 293.29 233.33 , 293.29 232.74 , 293.29 232.15 , 293.29 231.56 , 293.29 230.97 , 293.29 230.38 , 293.29 229.79 , 293.29 229.20 , 293.29 228.61 , 293.29 228.02 , 293.29 227.43 , 293.29 226.84 , 293.29 226.25 , 293.29 225.66 , 293.29 225.07 , 293.29 224.48 , 293.29 223.89 , 293.29 223.30 , 293.29 222.71 , 293.29 222.12 , 293.29 221.53 , 293.29 220.94 , 293.29 220.35 , 293.29 219.76 , 293.29 219.17 , 293.29 218.58 , 293.29 217.99 , 293.29 217.40 , 293.29 216.81 , 293.29 216.22 , 293.29 215.63 , 293.29 215.04 , 293.29 214.45 , 293.29 213.86 , 293.29 213.27 , 293.29 212.68 , 293.29 212.09 , 293.29 211.50 , 293.29 210.91 , 293.29 210.32 , 293.29 209.73 , 293.29 209.14 , 293.29 208.55 , 293.29 207.96 , 293.29 207.37 , 293.29 206.78 , 293.29 206.19 , 293.29 205.60 , 293.29 205.01 , 293.29 204.42 , 293.29 203.83 , 293.29 203.24 , 293.29 202.65 , 293.29 202.06 , 293.29 201.47 , 293.29 200.88 , 293.29 200.29 , 293.29 199.70 , 293.29 199.11 , 293.29 198.52 , 293.29 197.93 , 293.29 197.34 , 293.29 196.75 , 293.29 196.16 , 293.29 195.57 , 293.29 194.98 , 293.29 194.39 , 293.29 193.80 , 293.29 193.21 , 293.29 192.62 , 293.29 192.03 , 293.29 191.44 , 293.29 190.85 , 293.29 190.26 , 293.29 189.67 , 293.29 189.08 , 293.29 188.49 , 293.29 187.90 , 293.29 187.31 , 293.29 186.72 , 293.29 186.13 , 293.29 185.54 , 293.29 184.95 , 293.29 184.36 , 293.29 183.77 , 293.29 183.18 , 293.29 182.59 , 293.29 182.00 , 293.29 181.41 , 293.29 180.82 , 293.29 180.23 , 293.29 179.64 , 293.29 179.05 , 293.29 178.46 , 293.29 177.87 , 293.29 177.28 , 293.29 176.69 , 293.29 176.10 , 293.29 175.51 , 293.29 174.92 , 293.29 174.33 , 293.29 173.74 , 293.29 173.15 , 293.29 172.56 , 293.29 171.97 , 293.29 171.38 , 293.29 170.79 , 293.29 170.20 , 293.29 169.61 , 293.29 169.02 , 293.29 168.43 , 293.29 167.84 , 293.29 167.25 , 293.29 166.66 , 293.29 166.07 , 293.29 165.48 , 293.29 164.89 , 293.29 164.30 , 293.29 163.71 , 293.29 163.12 , 293.29 162.53 , 293.29 161.94 , 293.29 161.35 , 293.29 160.76 , 293.29 160.17 , 293.29 159.58 , 293.29 158.99 , 293.29 158.40 , 293.29 157.81 , 293.29 157.22 , 293.29 156.63 , 293.29 156.04 , 293.29 155.45 , 293.29 154.86 , 293.29 154.27 , 293.29 153.68 , 293.29 153.09 , 293.29 152.50 , 293.29 151.91 , 293.29 151.32 , 293.29 150.73 , 293.29 150.14 , 293.29 149.55 , 293.29 148.96 , 293.29 148.37 , 293.29 147.78 , 293.29 147.19 , 293.29 146.60 , 293.29 146.01 , 293.29 145.42 , 293.29 144.83 , 293.29 144.24 , 293.29 143.65 , 293.29 143.06 , 293.29 142.47 , 293.29 141.88 , 293.29 141.29 , 293.29 140.70 , 293.29 140.11 , 293.29 139.52 , 293.29 138.93 , 293.29 138.34 , 293.29 137.75 , 293.29 137.16 , 293.29 136.57 , 293.29 135.98 , 293.29 135.39 , 293.29 134.80 , 293.29 134.21 , 293.29 133.62 , 293.29 133.03 , 293.29 132.44 , 293.29 131.85 , 293.29 131.26 , 293.29 130.67 , 293.29 130.08 , 293.29 129.49 , 293.29 128.90 , 293.29 128.31 , 293.29 127.72 , 293.29 127.13 , 293.29 126.54 , 293.29 125.95 , 293.29 125.36 , 293.29 124.77 , 293.29 124.18 , 293.29 123.59 , 293.29 123.00 , 293.29 122.41 , 293.29 121.82 , 293.29 121.23 , 293.29 120.64 , 293.29 120.05 , 293.29 119.46 , 293.29 118.87 , 293.29 118.28 , 293.29 117.69 , 293.29 117.10 , 293.29 116.51 , 293.29 115.92 , 293.29 115.33 , 293.29 114.74 , 293.29 114.15 , 293.29 113.56 , 293.29 112.97 , 293.29 112.38 , 293.29 111.79 , 293.29 111.20 , 293.29 110.61 , 293.29 110.02 , 293.29 109.43 , 293.29 108.84 , 293.29 108.25 , 293.29 107.66 , 293.29 107.07 , 293.29 107.07 , 106.04 " style="stroke-width:1;stroke:#F8766D;fill:#000000;stroke-opacity:1.000000;fill-opacity:0.000000"/>
<polyline points="107.07 , 103.73 107.66 , 96.62 108.25 , 89.98 108.84 , 83.80 109.43 , 78.10 110.02 , 72.92 110.61 , 68.26 111.20 , 64.29 111.79 , 60.89 112.38 , 58.05 112.97 , 55.75 113.56 , 53.99 114.15 , 52.81 114.74 , 52.20 115.33 , 52.06 115.92 , 52.35 116.51 , 53.04 117.10 , 54.11 117.69 , 55.57 118.28 , 57.33 118.87 , 59.34 119.46 , 61.56 120.05 , 63.95 120.64 , 66.51 121.23 , 69.19 121.82 , 71.94 122.41 , 74.74 123.00 , 77.57 123.59 , 80.40 124.18 , 83.22 124.77 , 86.00 125.36 , 88.73 125.95 , 91.41 126.54 , 94.03 127.13 , 96.57 127.72 , 99.02 128.31 , 101.39 128.90 , 103.69 129.49 , 105.91 130.08 , 108.05 130.67 , 110.10 131.26 , 112.08 131.85 , 113.99 132.44 , 115.83 133.03 , 117.62 133.62 , 119.34 134.21 , 121.00 134.80 , 122.61 135.39 , 124.17 135.98 , 125.69 136.57 , 127.17 137.16 , 128.61 137.75 , 130.00 138.34 , 131.36 138.93 , 132.70 139.52 , 134.00 140.11 , 135.27 140.70 , 136.51 141.29 , 137.72 141.88 , 138.90 142.47 , 140.06 143.06 , 141.20 143.65 , 142.31 144.24 , 143.39 144.83 , 144.44 145.42 , 145.48 146.01 , 146.49 146.60 , 147.48 147.19 , 148.44 147.78 , 149.38 148.37 , 150.30 148.96 , 151.20 149.55 , 152.08 150.14 , 152.93 150.73 , 153.77 151.32 , 154.59 151.91 , 155.40 152.50 , 156.18 153.09 , 156.96 153.68 , 157.71 154.27 , 158.45 154.86 , 159.18 155.45 , 159.89 156.04 , 160.59 156.63 , 161.28 157.22 , 161.96 157.81 , 162.62 158.40 , 163.27 158.99 , 163.92 159.58 , 164.55 160.17 , 165.17 160.76 , 165.78 161.35 , 166.37 161.94 , 166.96 162.53 , 167.54 163.12 , 168.10 163.71 , 168.65 164.30 , 169.20 164.89 , 169.73 165.48 , 170.25 166.07 , 170.75 166.66 , 171.25 167.25 , 171.73 167.84 , 172.20 168.43 , 172.67 169.02 , 173.12 169.61 , 173.55 170.20 , 173.98 170.79 , 174.40 171.38 , 174.80 171.97 , 175.20 172.56 , 175.58 173.15 , 175.96 173.74 , 176.32 174.33 , 176.68 174.92 , 177.03 175.51 , 177.37 176.10 , 177.71 176.69 , 178.03 177.28 , 178.36 177.87 , 178.68 178.46 , 178.99 179.05 , 179.31 179.64 , 179.62 180.23 , 179.93 180.82 , 180.23 181.41 , 180.54 182.00 , 180.84 182.59 , 181.15 183.18 , 181.46 183.77 , 181.76 184.36 , 182.07 184.95 , 182.38 185.54 , 182.69 186.13 , 182.99 186.72 , 183.30 187.31 , 183.61 187.90 , 183.92 188.49 , 184.22 189.08 , 184.53 189.67 , 184.83 190.26 , 185.13 190.85 , 185.43 191.44 , 185.73 192.03 , 186.02 192.62 , 186.31 193.21 , 186.59 193.80 , 186.87 194.39 , 187.15 194.98 , 187.42 195.57 , 187.70 196.16 , 187.96 196.75 , 188.22 197.34 , 188.48 197.93 , 188.74 198.52 , 188.99 199.11 , 189.24 199.70 , 189.49 200.29 , 189.74 200.88 , 189.98 201.47 , 190.22 202.06 , 190.46 202.65 , 190.70 203.24 , 190.94 203.83 , 191.17 204.42 , 191.40 205.01 , 191.63 205.60 , 191.86 206.19 , 192.09 206.78 , 192.31 207.37 , 192.53 207.96 , 192.76 208.55 , 192.98 209.14 , 193.20 209.73 , 193.42 210.32 , 193.64 210.91 , 193.86 211.50 , 194.08 212.09 , 194.30 212.68 , 194.53 213.27 , 194.75 213.86 , 194.98 214.45 , 195.20 215.04 , 195.43 215.63 , 195.67 216.22 , 195.90 216.81 , 196.14 217.40 , 196.38 217.99 , 196.62 218.58 , 196.86 219.17 , 197.11 219.76 , 197.35 220.35 , 197.60 220.94 , 197.84 221.53 , 198.09 222.12 , 198.33 222.71 , 198.57 223.30 , 198.81 223.89 , 199.04 224.48 , 199.27 225.07 , 199.50 225.66 , 199.72 226.25 , 199.93 226.84 , 200.14 227.43 , 200.34 228.02 , 200.53 228.61 , 200.72 229.20 , 200.90 229.79 , 201.06 230.38 , 201.23 230.97 , 201.38 231.56 , 201.53 232.15 , 201.66 232.74 , 201.79 233.33 , 201.91 233.92 , 202.02 234.51 , 202.13 235.10 , 202.23 235.69 , 202.32 236.28 , 202.40 236.87 , 202.48 237.46 , 202.56 238.05 , 202.63 238.64 , 202.69 239.23 , 202.75 239.82 , 202.81 240.41 , 202.87 241.00 , 202.92 241.59 , 202.98 242.18 , 203.03 242.77 , 203.09 243.36 , 203.14 243.95 , 203.20 244.54 , 203.26 245.13 , 203.32 245.72 , 203.39 246.31 , 203.46 246.90 , 203.53 247.49 , 203.61 248.08 , 203.69 248.67 , 203.78 249.26 , 203.87 249.85 , 203.97 250.44 , 204.07 251.03 , 204.18 251.62 , 204.29 252.21 , 204.41 252.80 , 204.53 253.39 , 204.66 253.98 , 204.79 254.57 , 204.92 255.16 , 205.06 255.75 , 205.20 256.34 , 205.34 256.93 , 205.48 257.52 , 205.63 258.11 , 205.77 258.70 , 205.92 259.29 , 206.06 259.87 , 206.20 260.46 , 206.35 261.05 , 206.48 261.64 , 206.62 262.23 , 206.76 262.82 , 206.89 263.41 , 207.01 264.00 , 207.14 264.59 , 207.26 265.18 , 207.38 265.77 , 207.49 266.36 , 207.60 266.95 , 207.71 267.54 , 207.81 268.13 , 207.90 268.72 , 208.00 269.31 , 208.08 269.90 , 208.17 270.49 , 208.25 271.08 , 208.33 271.67 , 208.40 272.26 , 208.47 272.85 , 208.54 273.44 , 208.61 274.03 , 208.67 274.62 , 208.73 275.21 , 208.79 275.80 , 208.84 276.39 , 208.90 276.98 , 208.95 277.57 , 209.00 278.16 , 209.06 278.75 , 209.11 279.34 , 209.16 279.93 , 209.21 280.52 , 209.26 281.11 , 209.31 281.70 , 209.37 282.29 , 209.42 282.88 , 209.47 283.47 , 209.53 284.06 , 209.58 284.65 , 209.64 285.24 , 209.70 285.83 , 209.76 286.42 , 209.82 287.01 , 209.88 287.60 , 209.95 288.19 , 210.01 288.78 , 210.08 289.37 , 210.15 289.96 , 210.22 290.55 , 210.29 291.14 , 210.37 291.73 , 210.44 292.32 , 210.52 292.91 , 210.60 293.50 , 210.68 294.09 , 210.77 294.68 , 210.86 295.27 , 210.95 295.86 , 211.04 296.45 , 211.13 297.04 , 211.23 297.63 , 211.32 298.22 , 211.42 298.81 , 211.52 299.40 , 211.62 299.99 , 211.72 300.58 , 211.82 301.17 , 211.93 301.76 , 212.03 302.35 , 212.12 302.94 , 212.22 303.53 , 212.32 304.12 , 212.41 304.71 , 212.50 305.30 , 212.58 305.89 , 212.66 306.48 , 212.74 307.07 , 212.81 307.66 , 212.87 308.25 , 212.93 308.84 , 212.99 309.43 , 213.03 310.02 , 213.08 310.61 , 213.11 311.20 , 213.14 311.79 , 213.16 312.38 , 213.18 312.97 , 213.19 313.56 , 213.20 314.15 , 213.20 314.74 , 213.20 315.33 , 213.20 315.92 , 213.19 316.51 , 213.18 317.10 , 213.16 317.69 , 213.15 318.28 , 213.13 318.87 , 213.12 319.46 , 213.10 320.05 , 213.09 320.64 , 213.08 321.23 , 213.07 321.82 , 213.06 322.41 , 213.05 323.00 , 213.05 323.59 , 213.05 324.18 , 213.05 324.77 , 213.06 325.36 , 213.08 325.95 , 213.10 326.54 , 213.12 327.13 , 213.15 327.72 , 213.19 328.31 , 213.23 328.90 , 213.27 329.49 , 213.32 330.08 , 213.38 330.67 , 213.44 331.26 , 213.50 331.85 , 213.57 332.44 , 213.64 333.03 , 213.71 333.62 , 213.79 334.21 , 213.87 334.80 , 213.95 335.39 , 214.03 335.98 , 214.11 336.57 , 214.19 337.16 , 214.26 337.75 , 214.34 338.34 , 214.41 338.93 , 214.48 339.52 , 214.55 340.11 , 214.62 340.70 , 214.68 341.29 , 214.74 341.88 , 214.79 342.47 , 214.84 343.06 , 214.89 343.65 , 214.93 344.24 , 214.97 344.83 , 215.00 345.42 , 215.04 346.01 , 215.07 346.60 , 215.09 347.19 , 215.12 347.78 , 215.14 348.37 , 215.16 348.96 , 215.18 349.55 , 215.20 350.14 , 215.22 350.73 , 215.24 351.32 , 215.25 351.91 , 215.27 352.50 , 215.28 353.09 , 215.30 353.68 , 215.32 354.27 , 215.33 354.86 , 215.35 355.45 , 215.36 356.04 , 215.38 356.63 , 215.39 357.22 , 215.41 357.81 , 215.43 358.40 , 215.44 358.99 , 215.46 359.58 , 215.48 360.17 , 215.50 360.76 , 215.52 361.35 , 215.53 361.94 , 215.55 362.53 , 215.57 363.12 , 215.59 363.71 , 215.61 364.30 , 215.63 364.89 , 215.65 365.48 , 215.68 366.07 , 215.70 366.66 , 215.72 367.25 , 215.74 367.84 , 215.76 368.43 , 215.78 369.02 , 215.80 369.61 , 215.82 370.20 , 215.84 370.79 , 215.85 371.38 , 215.87 371.97 , 215.89 372.56 , 215.90 373.15 , 215.92 373.74 , 215.93 374.33 , 215.94 374.92 , 215.95 375.51 , 215.96 376.10 , 215.97 376.69 , 215.98 377.28 , 215.98 377.87 , 215.98 378.46 , 215.99 379.05 , 215.99 379.64 , 215.99 380.23 , 215.99 380.82 , 215.99 381.41 , 215.99 382.00 , 215.99 382.59 , 215.99 383.18 , 215.99 383.77 , 216.00 384.36 , 216.00 384.95 , 216.02 385.54 , 216.03 386.13 , 216.06 386.72 , 216.10 387.31 , 216.14 387.90 , 216.20 388.49 , 216.28 389.08 , 216.37 389.67 , 216.49 390.26 , 216.64 390.85 , 216.81 391.44 , 217.01 392.03 , 217.25 392.62 , 217.55 393.21 , 217.88 393.80 , 218.27 394.39 , 218.71 394.98 , 219.22 395.57 , 219.79 396.16 , 220.45 396.75 , 221.18 397.34 , 221.99 397.93 , 222.87 398.52 , 223.85 399.11 , 224.94 399.70 , 226.12 400.29 , 227.39 400.88 , 228.75 401.47 , 230.20 402.06 , 231.76 402.65 , 233.42 403.24 , 235.16 403.83 , 236.98 404.42 , 238.88 405.01 , 240.84 405.60 , 242.89 406.19 , 244.98 406.78 , 247.12 407.37 , 249.29 407.96 , 251.48 408.55 , 253.70 408.55 , 293.29 407.96 , 293.29 407.37 , 293.29 406.78 , 293.29 406.19 , 293.29 405.60 , 293.29 405.01 , 293.29 404.42 , 293.29 403.83 , 293.29 403.24 , 293.29 402.65 , 293.29 402.06 , 293.29 401.47 , 293.29 400.88 , 293.29 400.29 , 293.29 399.70 , 293.29 399.11 , 293.29 398.52 , 293.29 397.93 , 293.29 397.34 , 293.29 396.75 , 293.29 396.16 , 293.29 395.57 , 293.29 394.98 , 293.29 394.39 , 293.29 393.80 , 293.29 393.21 , 293.29 392.62 , 293.29 392.03 , 293.29 391.44 , 293.29 390.85 , 293.29 390.26 , 293.29 389.67 , 293.29 389.08 , 293.29 388.49 , 293.29 387.90 , 293.29 387.31 , 293.29 386.72 , 293.29 386.13 , 293.29 385.54 , 293.29 384.95 , 293.29 384.36 , 293.29 383.77 , 293.29 383.18 , 293.29 382.59 , 293.29 382.00 , 293.29 381.41 , 293.29 380.82 , 293.29 380.23 , 293.29 379.64 , 293.29 379.05 , 293.29 378.46 , 293.29 377.87 , 293.29 377.28 , 293.29 376.69 , 293.29 376.10 , 293.29 375.51 , 293.29 374.92 , 293.29 374.33 , 293.29 373.74 , 293.29 373.15 , 293.29 372.56 , 293.29 371.97 , 293.29 371.38 , 293.29 370.79 , 293.29 370.20 , 293.29 369.61 , 293.29 369.02 , 293.29 368.43 , 293.29 367.84 , 293.29 367.25 , 293.29 366.66 , 293.29 366.07 , 293.29 365.48 , 293.29 364.89 , 293.29 364.30 , 293.29 363.71 , 293.29 363.12 , 293.29 362.53 , 293.29 361.94 , 293.29 361.35 , 293.29 360.76 , 293.29 360.17 , 293.29 359.58 , 293.29 358.99 , 293.29 358.40 , 293.29 357.81 , 293.29 357.22 , 293.29 356.63 , 293.29 356.04 , 293.29 355.45 , 293.29 354.86 , 293.29 354.27 , 293.29 353.68 , 293.29 353.09 , 293.29 352.50 , 293.29 351.91 , 293.29 351.32 , 293.29 350.73 , 293.29 350.14 , 293.29 349.55 , 293.29 348.96 , 293.29 348.37 , 293.29 347.78 , 293.29 347.19 , 293.29 346.60 , 293.29 346.01 , 293.29 345.42 , 293.29 344.83 , 293.29 344.24 , 293.29 343.65 , 293.29 343.06 , 293.29 342.47 , 293.29 341.88 , 293.29 341.29 , 293.29 340.70 , 293.29 340.11 , 293.29 339.52 , 293.29 338.93 , 293.29 338.34 , 293.29 337.75 , 293.29 337.16 , 293.29 336.57 , 293.29 335.98 , 293.29 335.39 , 293.29 334.80 , 293.29 334.21 , 293.29 333.62 , 293.29 333.03 , 293.29 332.44 , 293.29 331.85 , 293.29 331.26 , 293.29 330.67 , 293.29 330.08 , 293.29 329.49 , 293.29 328.90 , 293.29 328.31 , 293.29 327.72 , 293.29 327.13 , 293.29 326.54 , 293.29 325.95 , 293.29 325.36 , 293.29 324.77 , 293.29 324.18 , 293.29 323.59 , 293.29 323.00 , 293.29 322.41 , 293.29 321.82 , 293.29 321.23 , 293.29 320.64 , 293.29 320.05 , 293.29 319.46 , 293.29 318.87 , 293.29 318.28 , 293.29 317.69 , 293.29 317.10 , 293.29 316.51 , 293.29 315.92 , 293.29 315.33 , 293.29 314.74 , 293.29 314.15 , 293.29 313.56 , 293.29 312.97 , 293.29 312.38 , 293.29 311.79 , 293.29 311.20 , 293.29 310.61 , 293.29 310.02 , 293.29 309.43 , 293.29 308.84 , 293.29 308.25 , 293.29 307.66 , 293.29 307.07 , 293.29 306.48 , 293.29 305.89 , 293.29 305.30 , 293.29 304.71 , 293.29 304.12 , 293.29 303.53 , 293.29 302.94 , 293.29 302.35 , 293.29 301.76 , 293.29 301.17 , 293.29 300.58 , 293.29 299.99 , 293.29 299.40 , 293.29 298.81 , 293.29 298.22 , 293.29 297.63 , 293.29 297.04 , 293.29 296.45 , 293.29 295.86 , 293.29 295.27 , 293.29 294.68 , 293.29 294.09 , 293.29 293.50 , 293.29 292.91 , 293.29 292.32 , 293.29 291.73 , 293.29 291.14 , 293.29 290.55 , 293.29 289.96 , 293.29 289.37 , 293.29 288.78 , 293.29 288.19 , 293.29 287.60 , 293.29 287.01 , 293.29 286.42 , 293.29 285.83 , 293.29 285.24 , 293.29 284.65 , 293.29 284.06 , 293.29 283.47 , 293.29 282.88 , 293.29 282.29 , 293.29 281.70 , 293.29 281.11 , 293.29 280.52 , 293.29 279.93 , 293.29 279.34 , 293.29 278.75 , 293.29 278.16 , 293.29 277.57 , 293.29 276.98 , 293.29 276.39 , 293.29 275.80 , 293.29 275.21 , 293.29 274.62 , 293.29 274.03 , 293.29 273.44 , 293.29 272.85 , 293.29 272.26 , 293.29 271.67 , 293.29 271.08 , 293.29 270.49 , 293.29 269.90 , 293.29 269.31 , 293.29 268.72 , 293.29 268.13 , 293.29 267.54 , 293.29 266.95 , 293.29 266.36 , 293.29 265.77 , 293.29 265.18 , 293.29 264.59 , 293.29 264.00 , 293.29 263.41 , 293.29 262.82 , 293.29 262.23 , 293.29 261.64 , 293.29 261.05 , 293.29 260.46 , 293.29 259.87 , 293.29 259.29 , 293.29 258.70 , 293.29 258.11 , 293.29 257.52 , 293.29 256.93 , 293.29 256.34 , 293.29 255.75 , 293.29 255.16 , 293.29 254.57 , 293.29 253.98 , 293.29 253.39 , 293.29 252.80 , 293.29 252.21 , 293.29 251.62 , 293.29 251.03 , 293.29 250.44 , 293.29 249.85 , 293.29 249.26 , 293.29 248.67 , 293.29 248.08 , 293.29 247.49 , 293.29 246.90 , 293.29 246.31 , 293.29 245.72 , 293.29 245.13 , 293.29 244.54 , 293.29 243.95 , 293.29 243.36 , 293.29 242.77 , 293.29 242.18 , 293.29 241.59 , 293.29 241.00 , 293.29 240.41 , 293.29 239.82 , 293.29 239.23 , 293.29 238.64 , 293.29 238.05 , 293.29 237.46 , 293.29 236.87 , 293.29 236.28 , 293.29 235.69 , 293.29 235.10 , 293.29 234.51 , 293.29 233.92 , 293.29 233.33 , 293.29 232.74 , 293.29 232.15 , 293.29 231.56 , 293.29 230.97 , 293.29 230.38 , 293.29 229.79 , 293.29 229.20 , 293.29 228.61 , 293.29 228.02 , 293.29 227.43 , 293.29 226.84 , 293.29 226.25 , 293.29 225.66 , 293.29 225.07 , 293.29 224.48 , 293.29 223.89 , 293.29 223.30 , 293.29 222.71 , 293.29 222.12 , 293.29 221.53 , 293.29 220.94 , 293.29 220.35 , 293.29 219.76 , 293.29 219.17 , 293.29 218.58 , 293.29 217.99 , 293.29 217.40 , 293.29 216.81 , 293.29 216.22 , 293.29 215.63 , 293.29 215.04 , 293.29 214.45 , 293.29 213.86 , 293.29 213.27 , 293.29 212.68 , 293.29 212.09 , 293.29 211.50 , 293.29 210.91 , 293.29 210.32 , 293.29 209.73 , 293.29 209.14 , 293.29 208.55 , 293.29 207.96 , 293.29 207.37 , 293.29 206.78 , 293.29 206.19 , 293.29 205.60 , 293.29 205.01 , 293.29 204.42 , 293.29 203.83 , 293.29 203.24 , 293.29 202.65 , 293.29 202.06 , 293.29 201.47 , 293.29 200.88 , 293.29 200.29 , 293.29 199.70 , 293.29 199.11 , 293.29 198.52 , 293.29 197.93 , 293.29 197.34 , 293.29 196.75 , 293.29 196.16 , 293.29 195.57 , 293.29 194.98 , 293.29 194.39 , 293.29 193.80 , 293.29 193.21 , 293.29 192.62 , 293.29 192.03 , 293.29 191.44 , 293.29 190.85 , 293.29 190.26 , 293.29 189.67 , 293.29 189.08 , 293.29 188.49 , 293.29 187.90 , 293.29 187.31 , 293.29 186.72 , 293.29 186.13 , 293.29 185.54 , 293.29 184.95 , 293.29 184.36 , 293.29 183.77 , 293.29 183.18 , 293.29 182.59 , 293.29 182.00 , 293.29 181.41 , 293.29 180.82 , 293.29 180.23 , 293.29 179.64 , 293.29 179.05 , 293.29 178.46 , 293.29 177.87 , 293.29 177.28 , 293.29 176.69 , 293.29 176.10 , 293.29 175.51 , 293.29 174.92 , 293.29 174.33 , 293.29 173.74 , 293.29 173.15 , 293.29 172.56 , 293.29 171.97 , 293.29 171.38 , 293.29 170.79 , 293.29 170.20 , 293.29 169.61 , 293.29 169.02 , 293.29 168.43 , 293.29 167.84 , 293.29 167.25 , 293.29 166.66 , 293.29 166.07 , 293.29 165.48 , 293.29 164.89 , 293.29 164.30 , 293.29 163.71 , 293.29 163.12 , 293.29 162.53 , 293.29 161.94 , 293.29 161.35 , 293.29 160.76 , 293.29 160.17 , 293.29 159.58 , 293.29 158.99 , 293.29 158.40 , 293.29 157.81 , 293.29 157.22 , 293.29 156.63 , 293.29 156.04 , 293.29 155.45 , 293.29 154.86 , 293.29 154.27 , 293.29 153.68 , 293.29 153.09 , 293.29 152.50 , 293.29 151.91 , 293.29 151.32 , 293.29 150.73 , 293.29 150.14 , 293.29 149.55 , 293.29 148.96 , 293.29 148.37 , 293.29 147.78 , 293.29 147.19 , 293.29 146.60 , 293.29 146.01 , 293.29 145.42 , 293.29 144.83 , 293.29 144.24 , 293.29 143.65 , 293.29 143.06 , 293.29 142.47 , 293.29 141.88 , 293.29 141.29 , 293.29 140.70 , 293.29 140.11 , 293.29 139.52 , 293.29 138.93 , 293.29 138.34 , 293.29 137.75 , 293.29 137.16 , 293.29 136.57 , 293.29 135.98 , 293.29 135.39 , 293.29 134.80 , 293.29 134.21 , 293.29 133.62 , 293.29 133.03 , 293.29 132.44 , 293.29 131.85 , 293.29 131.26 , 293.29 130.67 , 293.29 130.08 , 293.29 129.49 , 293.29 128.90 , 293.29 128.31 , 293.29 127.72 , 293.29 127.13 , 293.29 126.54 , 293.29 125.95 , 293.29 125.36 , 293.29 124.77 , 293.29 124.18 , 293.29 123.59 , 293.29 123.00 , 293.29 122.41 , 293.29 121.82 , 293.29 121.23 , 293.29 120.64 , 293.29 120.05 , 293.29 119.46 , 293.29 118.87 , 293.29 118.28 , 293.29 117.69 , 293.29 117.10 , 293.29 116.51 , 293.29 115.92 , 293.29 115.33 , 293.29 114.74 , 293.29 114.15 , 293.29 113.56 , 293.29 112.97 , 293.29 112.38 , 293.29 111.79 , 293.29 111.20 , 293.29 110.61 , 293.29 110.02 , 293.29 109.43 , 293.29 108.84 , 293.29 108.25 , 293.29 107.66 , 293.29 107.07 , 293.29 107.07 , 103.73 " style="stroke-width:1;stroke:#00BFC4;fill:#000000;stroke-opacity:1.000000;fill-opacity:0.000000"/>
<line x1="92.00" y1="293.29" x2="423.62" y2="293.29" style="stroke-width:1;stroke:#FFFFFF;fill:#000000;stroke-opacity:1.000000;fill-opacity:0.000000"/>
<polyline points="92.00 , 40.00 423.62 , 40.00 " style="stroke-width:1;stroke:#333333;fill:#000000;stroke-opacity:1.000000;fill-opacity:0.000000"/>
<polyline points="423.62 , 305.35 92.00 , 305.35 " style="stroke-width:1;stroke:#333333;fill:#000000;stroke-opacity:1.000000;fill-opacity:0.000000"/>
<text transform="translate(75.00,299.29)"  style="font-size:16" >0</text>
<text transform="translate(39.00,244.40)"  style="font-size:16" >50000</text>
<text transform="translate(30.20,189.52)"  style="font-size:16" >100000</text>
<text transform="translate(30.20,134.63)"  style="font-size:16" >150000</text>
<text transform="translate(30.20,79.75)"  style="font-size:16" >200000</text>
<polyline points="87.00 , 293.29 92.00 , 293.29 " style="stroke-width:1;stroke:#333333;fill:#000000;stroke-opacity:1.000000;fill-opacity:0.000000"/>
<polyline points="87.00 , 238.40 92.00 , 238.40 " style="stroke-width:1;stroke:#333333;fill:#000000;stroke-opacity:1.000000;fill-opacity:0.000000"/>
<polyline points="87.00 , 183.52 92.00 , 183.52 " style="stroke-width:1;stroke:#333333;fill:#000000;stroke-opacity:1.000000;fill-opacity:0.000000"/>
<polyline points="87.00 , 128.63 92.00 , 128.63 " style="stroke-width:1;stroke:#333333;fill:#000000;stroke-opacity:1.000000;fill-opacity:0.000000"/>
<polyline points="87.00 , 73.75 92.00 , 73.75 " style="stroke-width:1;stroke:#333333;fill:#000000;stroke-opacity:1.000000;fill-opacity:0.000000"/>
<polyline points="107.07 , 310.35 107.07 , 305.35 " style="stroke-width:1;stroke:#333333;fill:#000000;stroke-opacity:1.000000;fill-opacity:0.000000"/>
<polyline points="182.44 , 310.35 182.44 , 305.35 " style="stroke-width:1;stroke:#333333;fill:#000000;stroke-opacity:1.000000;fill-opacity:0.000000"/>
<polyline points="257.81 , 310.35 257.81 , 305.35 " style="stroke-width:1;stroke:#333333;fill:#000000;stroke-opacity:1.000000;fill-opacity:0.000000"/>
<polyline points="333.18 , 310.35 333.18 , 305.35 " style="stroke-width:1;stroke:#333333;fill:#000000;stroke-opacity:1.000000;fill-opacity:0.000000"/>
<polyline points="408.55 , 310.35 408.55 , 305.35 " style="stroke-width:1;stroke:#333333;fill:#000000;stroke-opacity:1.000000;fill-opacity:0.000000"/>
<text transform="translate(91.43,326.35)"  style="font-size:16" >0.00</text>
<text transform="translate(166.80,326.35)"  style="font-size:16" >0.25</text>
<text transform="translate(242.17,326.35)"  style="font-size:16" >0.50</text>
<text transform="translate(317.53,326.35)"  style="font-size:16" >0.75</text>
<text transform="translate(392.90,326.35)"  style="font-size:16" >1.00</text>
<text transform="translate(195.57,351.35)"  style="font-size:20" >ISIGEM score</text>
<text transform="translate(25.00,207.16) rotate(-90)"  style="font-size:20" >Density</text>
<rect x="304.86" y="71.12" width="104.86" height="43.90" style="stroke-width:1;stroke:#FFFFFF;fill:#FFFFFF;stroke-opacity:0.000000;fill-opacity:1.000000" />
<rect x="310.55" y="80.42" width="14.45" height="14.45" style="stroke-width:1;stroke:#FFFFFF;fill:#FFFFFF;stroke-opacity:0.000000;fill-opacity:1.000000" />
<rect x="311.27" y="81.13" width="13.03" height="13.03" style="stroke-width:1;stroke:#F8766D;fill:#FFFFFF;stroke-opacity:1.000000;fill-opacity:0.000000" />
<rect x="310.55" y="94.88" width="14.45" height="14.45" style="stroke-width:1;stroke:#FFFFFF;fill:#FFFFFF;stroke-opacity:0.000000;fill-opacity:1.000000" />
<rect x="311.27" y="95.59" width="13.03" height="13.03" style="stroke-width:1;stroke:#00BFC4;fill:#FFFFFF;stroke-opacity:1.000000;fill-opacity:0.000000" />
<text transform="translate(326.82,93.65)"  style="font-size:16" >DA mRNAs</text>
<text transform="translate(326.82,108.10)"  style="font-size:16" >Overall</text>
<text transform="translate(92.00,28.00)"  style="font-size:24" >Distribution of ISIGEM scores</text>
</svg>
